<svg width="50" height="18" viewBox="0 0 50 18" fill="none" xmlns="http://www.w3.org/2000/svg">
<g filter="url(#filter0_d)">
<path d="M12.3791 7.36C12.3124 7.2 12.2657 7.08667 12.2391 7.02C12.2257 6.95333 12.2191 6.90667 12.2191 6.88C12.0324 6.88 11.8724 6.88 11.7391 6.88C11.6191 6.86667 11.5057 6.86 11.3991 6.86L10.5591 6.82C10.1724 6.83333 9.83906 6.85333 9.55906 6.88C9.27906 6.89333 8.96573 6.9 8.61906 6.9C8.45906 6.87333 8.3324 6.85333 8.23906 6.84C8.14573 6.82667 8.05906 6.81333 7.97906 6.8C7.9124 6.78667 7.84573 6.77333 7.77906 6.76C7.7124 6.73333 7.6324 6.7 7.53906 6.66C7.52573 6.67333 7.50573 6.68 7.47906 6.68C7.34573 6.68 7.2124 6.63333 7.07906 6.54C6.95906 6.44667 6.84573 6.32667 6.73906 6.18C6.6324 6.03333 6.54573 5.86667 6.47906 5.68C6.42573 5.48 6.39906 5.26667 6.39906 5.04C6.39906 4.84 6.4324 4.68 6.49906 4.56C6.56573 4.44 6.64573 4.32667 6.73906 4.22C6.84573 4.11333 6.9524 4.00667 7.05906 3.9C7.16573 3.79333 7.25906 3.64667 7.33906 3.46C7.4324 3.39333 7.49906 3.35333 7.53906 3.34L7.63906 3.26C7.63906 3.26 7.66573 3.23333 7.71906 3.18C7.7724 3.12667 7.8324 3.06667 7.89906 3C7.97906 2.93333 8.0524 2.87333 8.11906 2.82C8.19906 2.75333 8.2524 2.72 8.27906 2.72C8.35906 2.68 8.4724 2.63333 8.61906 2.58C8.77906 2.52667 8.9324 2.48 9.07906 2.44C9.22573 2.4 9.35906 2.36667 9.47906 2.34C9.59906 2.31333 9.68573 2.3 9.73906 2.3C9.8324 2.32667 9.89906 2.35333 9.93906 2.38C9.9924 2.39333 10.0257 2.4 10.0391 2.4C10.2124 2.4 10.3591 2.39333 10.4791 2.38C10.6124 2.35333 10.7391 2.34 10.8591 2.34L11.5191 2.28L11.8991 1.36C11.8857 1.28 11.8791 1.19333 11.8791 1.1C11.8924 0.993333 11.8924 0.893333 11.8791 0.799999C11.8657 0.693333 11.8457 0.6 11.8191 0.52C11.8057 0.426666 11.7591 0.34 11.6791 0.26H10.2391C10.0257 0.26 9.80573 0.26 9.57906 0.26C9.36573 0.246666 9.11906 0.24 8.83906 0.24L8.29906 0.4C8.09906 0.4 7.8924 0.433333 7.67906 0.5C7.47906 0.553333 7.28573 0.619999 7.09906 0.7C6.9124 0.78 6.74573 0.86 6.59906 0.939999C6.4524 1.02 6.35906 1.08 6.31906 1.12C6.0524 1.34667 5.82573 1.55333 5.63906 1.74C5.4524 1.91333 5.27906 2.1 5.11906 2.3C4.9724 2.5 4.8324 2.72 4.69906 2.96C4.56573 3.18667 4.41906 3.46667 4.25906 3.8C4.16573 4 4.10573 4.21333 4.07906 4.44C4.0524 4.65333 4.03906 4.88 4.03906 5.12C4.03906 5.54667 4.0724 5.88 4.13906 6.12C4.21906 6.34667 4.29906 6.52667 4.37906 6.66C4.45906 6.78 4.5324 6.87333 4.59906 6.94C4.67906 7.00667 4.71906 7.08667 4.71906 7.18L5.17906 7.6L5.41906 7.66C5.64573 7.72667 5.8124 7.78667 5.91906 7.84C6.03906 7.89333 6.13906 7.94 6.21906 7.98C6.29906 8.00667 6.3724 8.04 6.43906 8.08C6.51906 8.12 6.63906 8.16667 6.79906 8.22C6.8524 8.23333 6.89906 8.24667 6.93906 8.26C6.9924 8.26 7.04573 8.26 7.09906 8.26C7.20573 8.26 7.30573 8.25333 7.39906 8.24C7.50573 8.22667 7.62573 8.22 7.75906 8.22C7.86573 8.22 7.97906 8.22667 8.09906 8.24C8.21906 8.24 8.36573 8.25333 8.53906 8.28C8.9124 8.28 9.22573 8.28 9.47906 8.28C9.7324 8.28 9.9724 8.28 10.1991 8.28C10.4391 8.26667 10.6857 8.26 10.9391 8.26C11.2057 8.24667 11.5257 8.23333 11.8991 8.22L12.0991 8.04C12.1657 7.98667 12.2124 7.95333 12.2391 7.94C12.2791 7.92667 12.3657 7.85333 12.4991 7.72L12.6391 7.58C12.6257 7.58 12.5791 7.57333 12.4991 7.56C12.4191 7.53333 12.3791 7.46667 12.3791 7.36ZM21.23 2.48L20.47 1.28L20.21 1.36L18.87 2.44L18.27 3.48L17.85 3.88V2.5L17.31 1.34H16.15L15.83 1.7V6.82L15.73 7.04L15.77 7.56L17.97 7.38L18.31 7.18V6.78L18.41 6.14L18.31 5.08C18.4033 5.01333 18.4767 4.93333 18.53 4.84C18.5967 4.74667 18.6633 4.65333 18.73 4.56C18.81 4.46667 18.8967 4.36667 18.99 4.26C19.0967 4.14 19.2233 4.02667 19.37 3.92L20.29 3.22C20.4367 3.11333 20.5833 3 20.73 2.88C20.89 2.76 21.0567 2.62667 21.23 2.48ZM23.4155 1.84C23.5088 1.84 23.5888 1.88 23.6555 1.96C23.7355 2.04 23.8021 2.13333 23.8555 2.24C23.9221 2.34667 23.9821 2.44 24.0355 2.52C24.0888 2.6 24.1355 2.64 24.1755 2.64C24.3088 2.61333 24.5088 2.56 24.7755 2.48C25.0555 2.38667 25.3555 2.29333 25.6755 2.2C26.0088 2.10667 26.3288 2.02667 26.6355 1.96C26.9555 1.89333 27.2155 1.86 27.4155 1.86C27.5221 1.86 27.5955 1.88 27.6355 1.92C27.6888 1.96 27.7221 2.00667 27.7355 2.06C27.7488 2.11333 27.7621 2.16667 27.7755 2.22C27.8021 2.26 27.8488 2.29333 27.9155 2.32C27.9421 2.36 27.9821 2.4 28.0355 2.44C28.0888 2.46667 28.1155 2.52 28.1155 2.6C28.0488 2.76 28.0088 2.91333 27.9955 3.06C27.9821 3.19333 27.9755 3.32 27.9755 3.44V3.56L27.3955 3.6C27.3021 3.61333 27.2088 3.62667 27.1155 3.64C27.0221 3.64 26.9155 3.64 26.7955 3.64L26.1955 3.98C26.0221 3.98 25.8755 4 25.7555 4.04C25.6355 4.06667 25.5088 4.11333 25.3755 4.18C25.2555 4.23333 25.1155 4.29333 24.9555 4.36C24.7955 4.42667 24.5821 4.49333 24.3155 4.56C23.6755 4.88 23.1955 5.26667 22.8755 5.72C22.5688 6.17333 22.4155 6.73333 22.4155 7.4C22.4155 7.61333 22.4888 7.82667 22.6355 8.04C22.7821 8.24 22.9621 8.42667 23.1755 8.6C23.3888 8.76 23.6088 8.89333 23.8355 9C24.0621 9.09333 24.2621 9.14 24.4355 9.14C24.6355 9.14 24.8221 9.14 24.9955 9.14C25.1688 9.15333 25.3421 9.16 25.5155 9.16H26.6155H26.6355C26.6621 9.16 26.6821 9.14 26.6955 9.1C26.7221 9.07333 26.7488 9.04 26.7755 9C26.8155 8.94667 26.8755 8.90667 26.9555 8.88C27.0488 8.84 27.1755 8.82 27.3355 8.82C27.5088 8.82 27.6888 8.87333 27.8755 8.98C28.0621 9.07333 28.2221 9.12 28.3555 9.12C28.4621 9.12 28.5621 9.11333 28.6555 9.1C28.7488 9.08667 28.8421 9.06667 28.9355 9.04C29.0421 9.01333 29.1621 8.99333 29.2955 8.98C29.4288 8.95333 29.5821 8.94 29.7555 8.94C29.7955 9.00667 29.8688 9.06667 29.9755 9.12H30.2555C30.2688 9.05333 30.2955 8.99333 30.3355 8.94C30.3755 8.87333 30.4221 8.78667 30.4755 8.68C30.4621 8.37333 30.4421 8.1 30.4155 7.86C30.4021 7.62 30.3888 7.39333 30.3755 7.18C30.3755 6.95333 30.3688 6.72 30.3555 6.48C30.3555 6.24 30.3488 5.96667 30.3355 5.66H30.3955C30.4088 5.64667 30.4221 5.64 30.4355 5.64C30.3955 5.64 30.3621 5.58667 30.3355 5.48C30.3088 5.37333 30.2888 5.26667 30.2755 5.16C30.2621 5.04 30.2488 4.93333 30.2355 4.84C30.2355 4.73333 30.2355 4.68 30.2355 4.68C30.2221 4.57333 30.1955 4.49333 30.1555 4.44C30.1288 4.37333 30.0955 4.3 30.0555 4.22C30.0288 4.12667 29.9955 4 29.9555 3.84C29.9288 3.68 29.9088 3.42 29.8955 3.06C29.8555 3.03333 29.8221 2.95333 29.7955 2.82C29.7688 2.68667 29.7421 2.54667 29.7155 2.4C29.7021 2.24 29.6888 2.09333 29.6755 1.96C29.6755 1.81333 29.6688 1.72667 29.6555 1.7H29.6155C29.5088 1.7 29.4221 1.64 29.3555 1.52C29.2888 1.4 29.2288 1.26667 29.1755 1.12C29.1221 0.973333 29.0755 0.846666 29.0355 0.74C28.9955 0.62 28.9488 0.56 28.8955 0.56C28.8688 0.533333 28.8421 0.506666 28.8155 0.479999C28.7888 0.44 28.7621 0.406666 28.7355 0.38H28.4155C28.2821 0.38 28.1688 0.38 28.0755 0.38C27.9955 0.38 27.9155 0.38 27.8355 0.38C27.7688 0.38 27.6955 0.373333 27.6155 0.36C27.5355 0.346666 27.4355 0.326666 27.3155 0.299999C27.3021 0.366666 27.2221 0.413333 27.0755 0.439999C26.9421 0.453333 26.7888 0.46 26.6155 0.46C26.4555 0.46 26.3021 0.46 26.1555 0.46C26.0221 0.46 25.9488 0.48 25.9355 0.52C25.5755 0.64 25.2488 0.74 24.9555 0.82C24.6621 0.9 24.4155 0.986666 24.2155 1.08C24.0155 1.16 23.8488 1.26 23.7155 1.38C23.5821 1.48667 23.4821 1.64 23.4155 1.84ZM27.7555 5.2V6.22C27.6888 6.43333 27.6488 6.65333 27.6355 6.88C27.6221 7.10667 27.6155 7.27333 27.6155 7.38V7.54H27.3355C27.0688 7.56667 26.8221 7.58667 26.5955 7.6C26.3688 7.61333 26.1488 7.62667 25.9355 7.64L24.5355 7.72C24.4421 7.56 24.3621 7.43333 24.2955 7.34C24.2421 7.24667 24.2155 7.10667 24.2155 6.92C24.2155 6.54667 24.2621 6.25333 24.3555 6.04C24.4621 5.82667 24.6021 5.66667 24.7755 5.56C24.9621 5.44 25.1755 5.35333 25.4155 5.3C25.6555 5.24667 25.9088 5.18667 26.1755 5.12C26.3088 5.08 26.4288 5.04667 26.5355 5.02C26.6555 4.99333 26.7688 4.98 26.8755 4.98H26.9555C27.0888 5.02 27.2221 5.06 27.3555 5.1C27.5021 5.14 27.6355 5.17333 27.7555 5.2ZM39.2611 6.08L38.5411 5.8H37.3611L37.2611 5.9H36.5211L36.3211 6.18L35.9411 5.82L36.9611 4.8L37.0611 4.54L37.7211 3.64V3.36L37.9411 3.32V3.24L37.8811 3.12L38.3211 2.88L38.3411 2.66L39.1211 1.46L38.9211 1.22H34.9611L34.7211 1.26H33.0811L32.8011 2.18V2.58L34.4811 2.68L35.4011 2.5H35.8611V2.88L33.0011 6.7L33.0411 7.06L33.3211 7.34H36.3811L36.7011 7.3L39.1011 7.14L39.2611 6.94V6.08ZM45.1488 1.12L44.4688 0.84L43.5888 0.68L42.9488 0.54L42.4688 0.7V2.6L42.5288 2.84L43.7288 2.64L44.6688 2.82L44.9488 2.62L45.1488 1.12ZM45.2888 7.78L44.9488 7.5L45.0688 7.14V6.2L44.9288 5.7V4.32L44.6888 4.06L44.2688 4.04L44.1088 4.12L43.3088 4.06L42.9688 4.22L42.5488 9.06L42.7488 9.28H43.1087L43.3488 9.2H44.8888L45.2688 9.02L45.1688 8.54L45.2888 7.78Z" fill="#EE2478"/>
</g>
<defs>
<filter id="filter0_d" x="0.0390625" y="0.23999" width="49.2497" height="17.04" filterUnits="userSpaceOnUse" color-interpolation-filters="sRGB">
<feFlood flood-opacity="0" result="BackgroundImageFix"/>
<feColorMatrix in="SourceAlpha" type="matrix" values="0 0 0 0 0 0 0 0 0 0 0 0 0 0 0 0 0 0 127 0"/>
<feOffset dy="4"/>
<feGaussianBlur stdDeviation="2"/>
<feColorMatrix type="matrix" values="0 0 0 0 0 0 0 0 0 0 0 0 0 0 0 0 0 0 0.4 0"/>
<feBlend mode="normal" in2="BackgroundImageFix" result="effect1_dropShadow"/>
<feBlend mode="normal" in="SourceGraphic" in2="effect1_dropShadow" result="shape"/>
</filter>
</defs>
</svg>
