<?xml version="1.0" encoding="utf-8"?>
<!-- Generator: Adobe Illustrator 16.0.0, SVG Export Plug-In . SVG Version: 6.00 Build 0)  -->
<!DOCTYPE svg PUBLIC "-//W3C//DTD SVG 1.1//EN" "http://www.w3.org/Graphics/SVG/1.1/DTD/svg11.dtd">
<svg version="1.1" id="effd0595-b14c-4c7e-b56f-e463e9379f7d"
	 xmlns="http://www.w3.org/2000/svg" xmlns:xlink="http://www.w3.org/1999/xlink" x="0px" y="0px" width="930px" height="788px"
	 viewBox="0 0 930 788" enable-background="new 0 0 930 788" xml:space="preserve">
<title>process</title>
<circle fill="#F1F1F1" cx="748.166" cy="49.477" r="14.756"/>
<circle fill="#F1F1F1" cx="661.166" cy="620.477" r="14.755"/>
<circle fill="#F1F1F1" cx="294.166" cy="191.477" r="14.756"/>
<ellipse fill="#F1F1F1" cx="157" cy="765" rx="157" ry="23"/>
<path fill="#E1C158" d="M239.936,598.976l39.415-12.348c-2.182-16.392-7.161-32.287-14.722-46.994l-39.415,12.348
	C234.463,565.94,239.568,582.234,239.936,598.976z"/>
<circle fill="#2F2E41" cx="145.2" cy="266.353" r="36.8"/>
<polygon fill="#9F616A" points="105.5,727.5 98.5,757.5 115.5,757.5 122.5,723.5 "/>
<polygon fill="#9F616A" points="187.5,727.5 187.5,755.5 204.5,757.5 204.5,727.5 "/>
<path fill="#9F616A" d="M100.5,409.5c0,0,2,43,4,46s20,46,20,46l9-28c0,0-14-23-12-36s0.74-28.997,0.74-28.997L100.5,409.5z"/>
<circle fill="#9F616A" cx="157.5" cy="277.5" r="28"/>
<path fill="#9F616A" d="M134.5,280.5c0,0,1,40-6,46s40,1,40,1s-10-28-2-34S134.5,280.5,134.5,280.5z"/>
<path fill="#2F2E41" d="M171.5,325.5c0,0-6-11-14-10s-34,3-35,5s-4,9-6,11s-17,5-18,17s36,85,36,85s-5,17-4,21s-5,16-4,21
	s-15,35-7,74v63c0,0-27,109-19,117s35,3,40,0s26-154,26-154l10-51l1,112c0,0-2,94,5,97s34,4,36-2
	c1.56-4.68,9.202-129.188,12.491-183.767c1.139-18.839-0.342-37.744-4.403-56.175c-4.162-18.878-10.205-41.057-17.088-50.059
	c-13-17-21-71-21-71l17-31c0,0-10-10-16-10S171.5,325.5,171.5,325.5z"/>
<path fill="#2F2E41" d="M104.5,341.5l-5.273,3.589c0,0-3.727,64.411-0.727,68.411s23.857,2.048,25.429-1.477
	C125.5,408.5,104.5,341.5,104.5,341.5z"/>
<path fill="#9F616A" d="M186.5,401.5c0,0,1,42,7,54s28,62,28,62s-1.277,55.031,9.861,41.516C242.5,545.5,235.5,513.5,235.5,513.5
	l-19-74c0,0-10-33-9-43S186.5,401.5,186.5,401.5z"/>
<path fill="#2F2E41" d="M204.5,739.299c0,0,1-0.799,4,2.201s11,7,10,18s-7,13-7,13v-3h-3v5c0,0-5,16-28,6c0,0-1-8,0-13s1-29,4-28
	s11,2,13,6S205.5,748.099,204.5,739.299z"/>
<path fill="#2F2E41" d="M101.5,740.299c0,0-1-0.799-4,2.201s-11,7-10,18s7,13,7,13v-3h3v5c0,0,5,16,28,6c0,0,1-8,0-13s-1-29-4-28
	s-11,2-13,6S100.5,749.099,101.5,740.299z"/>
<path fill="#2F2E41" d="M191.5,336.5l14,3c0,0,0,22,4,31s11,30,8,31s-31,15-33,7S177.5,336.5,191.5,336.5z"/>
<circle fill="#2F2E41" cx="105.333" cy="217.9" r="36.8"/>
<path fill="#2F2E41" d="M73.592,248.372c16.473,11.906,39.479,8.204,51.385-8.269c2.423-3.353,4.263-7.089,5.444-11.054
	c-2.536,20.167-20.939,34.459-41.105,31.923c-20.166-2.536-34.459-20.939-31.923-41.105c0.251-2,0.667-3.977,1.242-5.909
	C56.955,227.301,62.69,240.497,73.592,248.372z"/>
<circle fill="#2F2E41" cx="135.387" cy="272.486" r="26.987"/>
<ellipse fill="#2F2E41" cx="158.08" cy="262.366" rx="23.92" ry="18.707"/>
<ellipse fill="#A0616A" cx="164.46" cy="281.535" rx="4.54" ry="8.032"/>
<rect x="333.233" y="89.391" transform="matrix(-0.9578 -0.2876 0.2876 -0.9578 1087.7075 767.569)" fill="#F1F1F1" width="534" height="429"/>
<line fill="none" stroke="#3F3D56" stroke-width="2" stroke-miterlimit="10" x1="611.165" y1="141.893" x2="732.306" y2="190.858"/>
<polygon fill="#3F3D56" points="614.244,151.96 616.058,151.113 611.876,142.182 621.09,138.664 620.374,136.795 609.153,141.082 
	"/>
<polygon fill="#3F3D56" points="723.096,195.958 722.38,194.089 731.593,190.572 727.412,181.64 729.226,180.793 734.316,191.673 
	"/>
<circle fill="#3F3D56" cx="671.735" cy="166.375" r="11"/>
<line fill="none" stroke="#3F3D56" stroke-width="2" stroke-miterlimit="10" x1="601.934" y1="481.351" x2="713.537" y2="413.4"/>
<polygon fill="#3F3D56" points="611.848,484.891 612.251,482.93 602.59,480.953 605.268,471.461 603.341,470.919 600.082,482.48 "/>
<polygon fill="#3F3D56" points="712.13,423.833 710.203,423.291 712.882,413.801 703.22,411.822 703.624,409.862 715.391,412.274 
	"/>
<circle fill="#3F3D56" cx="657.735" cy="447.375" r="11"/>
<line fill="none" stroke="#3F3D56" stroke-width="2" stroke-miterlimit="10" x1="461.716" y1="266.044" x2="461.755" y2="396.706"/>
<polygon fill="#3F3D56" points="453.538,272.674 455.003,274.038 461.714,266.812 468.431,274.034 469.895,272.669 461.713,263.875 
	"/>
<polygon fill="#3F3D56" points="453.573,390.082 455.038,388.717 461.753,395.939 468.466,388.713 469.931,390.077 461.754,398.875 
	"/>
<circle fill="#3F3D56" cx="461.735" cy="331.375" r="11"/>
<rect x="369" fill="#3F3D56" width="182" height="226"/>
<path fill="#FF6584" d="M448.621,84.134h-41.304c-2.818-16.294-2.818-32.952,0-49.247h41.304
	C443.968,50.974,443.968,68.049,448.621,84.134z"/>
<path fill="#E1C158" d="M471.379,109.112h41.304c2.818-16.295,2.818-32.952,0-49.247h-41.304
	C476.032,75.951,476.032,93.026,471.379,109.112z"/>
<path fill="#E1C158" d="M432.379,191.112h41.304c2.818-16.295,2.818-32.952,0-49.247h-41.304
	C437.032,157.951,437.032,175.026,432.379,191.112z"/>
<rect x="748" y="215" fill="#3F3D56" width="182" height="226"/>
<rect x="774" y="263" fill="#E1C158" width="130" height="6"/>
<rect x="774" y="284" fill="#E1C158" width="130" height="6"/>
<rect x="774" y="305" fill="#E1C158" width="130" height="6"/>
<rect x="774" y="326" fill="#E1C158" width="130" height="6"/>
<rect x="774" y="347" fill="#E1C158" width="130" height="6"/>
<rect x="805" y="369" fill="#E1C158" width="68" height="24"/>
<rect x="385" y="447" fill="#3F3D56" width="182" height="226"/>
<rect x="411.297" y="572.806" fill="#E1C158" width="130" height="6"/>
<rect x="411.297" y="593.806" fill="#E1C158" width="130" height="6"/>
<rect x="411.297" y="614.806" fill="#E1C158" width="130" height="6"/>
<rect x="411.297" y="635.806" fill="#E1C158" width="130" height="6"/>
<path opacity="0.3" fill="#E1C158" enable-background="new    " d="M451.121,527.44h-41.304c-2.818-16.294-2.818-32.952,0-49.247
	h41.304C446.468,494.279,446.468,511.354,451.121,527.44z"/>
<rect x="468.297" y="482.806" opacity="0.3" fill="#E1C158" enable-background="new    " width="76" height="5"/>
<rect x="468.297" y="500.806" opacity="0.3" fill="#E1C158" enable-background="new    " width="76" height="5"/>
<rect x="468.297" y="518.806" opacity="0.3" fill="#E1C158" enable-background="new    " width="76" height="5"/>
<rect x="468.297" y="536.806" opacity="0.3" fill="#E1C158" enable-background="new    " width="76" height="5"/>
</svg>
