<?xml version="1.0" encoding="utf-8"?>
<!-- Generator: Adobe Illustrator 16.0.0, SVG Export Plug-In . SVG Version: 6.00 Build 0)  -->
<!DOCTYPE svg PUBLIC "-//W3C//DTD SVG 1.1//EN" "http://www.w3.org/Graphics/SVG/1.1/DTD/svg11.dtd">
<svg version="1.1" id="_x31_58d9566-b2be-4f0f-bcdd-c9ed3d10c246"
	 xmlns="http://www.w3.org/2000/svg" xmlns:xlink="http://www.w3.org/1999/xlink" x="0px" y="0px" width="974px" height="714.52px"
	 viewBox="0 0 974 714.52" enable-background="new 0 0 974 714.52" xml:space="preserve">
<title>make_it_rain</title>
<path opacity="0.2" fill="#E1C158" enable-background="new    " d="M115.091,309.039c-12.81,3.87-24.8,13.24-28,26.24
	c-3.66,14.939,4.78,30,6,45.34c3.94,50.26-67.56,85.72-57.36,135.09c4.05,19.63,20.42,34.07,36.55,46
	c25.84,19.05,54.51,35.88,86.26,40.63c48.19,7.22,98.54-14,145.38-0.59c37.779,10.82,66.689,42.53,104.21,54.23
	c28.56,8.909,59.329,5.399,89,1.79c16-1.94,32.76-4.181,45.67-13.78c24-17.87,25.51-53.16,41.58-78.45
	c24.819-39,79.239-46.66,124.869-39.08c45.631,7.58,89.94,26.24,136.171,24.72c9.88-0.33,20-1.67,28.619-6.52
	c10.48-5.89,17.561-16.271,23.82-26.54c39.125-64.433,60.602-138.027,62.27-213.39c0.271-12.95-0.189-26.46-6.279-37.89
	c-7.7-14.46-23.09-23.11-38.41-28.93c-36.79-14-77.43-16.29-113.48-32.08c-34.77-15.23-62.93-41.94-93.21-64.83
	c-60.342-45.527-130.282-76.676-204.489-91.07c-17.391-3.36-35.44-5.76-52.721-1.88c-19.909,4.47-37.069,16.88-52.5,30.24
	c-41.05,35.54-73.949,79.39-111.78,118.34c-26.097,26.861-54.514,51.366-84.92,73.23c-14,10.09-28.88,22.07-44.48,29.53
	C143.582,306.209,130.191,304.489,115.091,309.039z"/>
<linearGradient id="SVGID_1_" gradientUnits="userSpaceOnUse" x1="560.9121" y1="55.1699" x2="560.9121" y2="410.2808" gradientTransform="matrix(1 0 0 -1 -113 622.7793)">
	<stop  offset="0" style="stop-color:#808080;stop-opacity:0.25"/>
	<stop  offset="0.54" style="stop-color:#808080;stop-opacity:0.12"/>
	<stop  offset="1" style="stop-color:#808080;stop-opacity:0.1"/>
</linearGradient>
<path fill="url(#SVGID_1_)" d="M710.081,212.499h-524.34c-13.194,0-23.89,10.696-23.89,23.89l0,0v307.33
	c0,13.194,10.696,23.891,23.89,23.891l0,0h524.34c13.194,0,23.891-10.696,23.891-23.891l0,0v-307.33
	C733.972,223.195,723.275,212.499,710.081,212.499L710.081,212.499z"/>
<path fill="#E1C158" d="M193.392,216.679h509.03c13.702,0,24.81,11.108,24.81,24.81v297.13c0,13.702-11.107,24.81-24.81,24.81
	h-509.03c-13.702,0-24.81-11.107-24.81-24.81v-297.13C168.582,227.787,179.689,216.679,193.392,216.679z"/>
<rect x="168.582" y="277.359" fill="#E1C158" width="558.65" height="63.571"/>
<rect x="168.582" y="277.359" opacity="0.3" enable-background="new    " width="558.65" height="63.571"/>
<rect x="221.562" y="388.129" fill="#D6D6E3" width="452.7" height="30.82"/>
<circle fill="#E1C158" cx="259.122" cy="496.009" r="44.31"/>
<circle opacity="0.3" enable-background="new    " cx="259.122" cy="496.009" r="44.31"/>
<linearGradient id="SVGID_2_" gradientUnits="userSpaceOnUse" x1="3352.2227" y1="10.667" x2="3352.2227" y2="562.9214" gradientTransform="matrix(-1 0 0 -1 4156 622.7793)">
	<stop  offset="0" style="stop-color:#808080;stop-opacity:0.25"/>
	<stop  offset="0.54" style="stop-color:#808080;stop-opacity:0.12"/>
	<stop  offset="1" style="stop-color:#808080;stop-opacity:0.1"/>
</linearGradient>
<path fill="url(#SVGID_2_)" d="M695.472,131.179c0.715,2.261,2.234,4.183,4.27,5.4c9.19,6.07,29.17,4.78,31.57,4.78
	c0.51,0,1.18,0.91,1.92,2.44c3.53,7.28,9,28.62,9.37,33.42c0.49,5.81,5.89,33,14.729,43.13c0.271,0.31,0.54,0.6,0.801,0.87
	c8.67,8.71,18.84-0.87,18.84-0.87l1.46-5.07c-0.41,2-0.87,4.33-1.33,6.94c-0.23,1.31-0.46,2.7-0.68,4.13
	c-1.318,8.058-2.01,16.206-2.07,24.37c-0.022,2.964,0.104,5.928,0.38,8.88c0.08,0.82,0.17,1.63,0.28,2.42
	c0.451,3.596,0.672,7.216,0.66,10.84c-0.08,21.52-5.57,48.29-5.57,48.29l0.21-0.069c-0.13,0.67-0.21,1-0.21,1l0.32-0.101
	c-0.153,0.994-0.301,2.011-0.44,3.051c-1.86,13.5-2.93,30.3-3.44,40c-0.264,5.116-0.036,10.246,0.681,15.319l9.76,68.71v32
	c-0.033,4.85,0.559,9.683,1.76,14.381c3.181,12.09,0.561,54.29-0.91,74.31c-0.409,5.46-0.729,9.28-0.819,10.38v0.33l0.279-0.109
	c0,0.229,0,0.35,0,0.35c0.417-0.179,0.854-0.306,1.301-0.38c-3.87,6-10.88,15.92-16.271,17.59c-3.177,0.968-6.002,2.841-8.13,5.39
	l-0.14,0.19l-0.2,0.28c-0.666,0.892-1.071,1.951-1.17,3.06c-0.078-0.19-0.139-0.389-0.181-0.59c-0.409,2.229,0.931,4.27,5.141,5.26
	c2.454,0.469,4.952,0.67,7.45,0.6c14.6,0,40.51-4.489,43.369-9.319v-16.66l0.471,0.15v0.149l1.79,0.59l4.909-16.479
	c5.891-4.36,1-82.391,0-100.32c-0.899-16.34,9.211-81.34,11-92.79l-0.239-0.29l0.27-1.67c0.36,0.262,0.695,0.557,1,0.88
	c0.588,0.698,1.101,1.456,1.53,2.26c0.846,1.432,1.571,2.93,2.17,4.48c9.88,24.64,14.33,95.1,14.33,101.42v66.26
	c-0.021,6.539,0.889,13.048,2.7,19.33c0.907,3.307,1.608,6.667,2.1,10.061c0.21,1.33,0.391,2.649,0.561,3.909
	c0.17,1.261,0.34,2.7,0.47,3.881c0,0.31,0.07,0.609,0.1,0.89c0.03,0.28,0,0.27,0,0.41c0.271,2.609,0.41,4.319,0.41,4.319
	c0.037-0.143,0.105-0.276,0.2-0.39l0.05,0.63c0.07-0.238,0.205-0.453,0.39-0.62c0.407-0.398,0.849-0.76,1.32-1.08v8.42l-0.24-0.18
	v1.45c10.181,7.68,26.75,10,39.471,9.91c8.25,0,14.93-1,17.25-2.16c3.319-1.63,1.5-5.43-1.521-8.34c-2.34-2.26-5.39-4-7.32-3.78
	c-3.22,0.35-14.229-12.12-20-18.95l0.65-0.29l0.92-0.399v-110.48c0,0,1.48-43.62,5.891-86.76
	c2.092-21.746-0.481-43.688-7.551-64.359l-0.14-0.41l1.34,0.209c1.42,0.221,2.181,0.351,2.181,0.351s0-0.34-0.091-1h0.091
	c0,0-1.721-18.71-1.74-42.21c0-26.64,2.25-59.12,11.56-77.5c5.36-10.58,7.15-19,7-25.64c0.234-5.843-1.448-11.602-4.79-16.4
	c-1.401-1.932-3.308-3.44-5.51-4.36l-0.189-0.11h-0.101c-1.608-0.651-3.325-0.99-5.06-1h-20.11c-2.327,0.001-4.616-0.602-6.64-1.75
	l-7.87-4.46c-2.62-5.73-3-12.83-2.44-19.49c0-0.53,0.1-1.06,0.15-1.58l0.569-0.6c0.44-0.47,0.851-1,1.25-1.45
	c-0.009,0.395-0.039,0.788-0.09,1.18c-0.1,0.63-0.27,1-0.54,1.08c4.301-0.56,9.101-1.41,11.74-4.73c0.11-0.13,0.21-0.27,0.311-0.41
	c0.779-1.263,1.427-2.603,1.93-4c0.37-0.954,0.864-1.855,1.47-2.68c0.66-0.86,1.521-1.56,2.23-2.38l0.119-0.14
	c2.53-3,2.671-7.3,2.7-11.22c0.05-9.52-0.229-20-6.6-27.14c-5.29-5.94-13.73-8.19-21.74-8.45c-8.01-0.26-16,1.18-24,1.22
	c-5.439,0-12-0.09-15,4.41c-1.47,2.21-1.65,5.1-3.25,7.22c-0.92,1.22-2.33,2.27-2.41,3.79c-0.01,0.701,0.17,1.392,0.521,2v0.07
	c1.939,3.82,6.06,6.2,10.359,6.95c-0.727,0.875-1.395,1.797-2,2.76c-2.625,4.197-4.012,9.05-4,14c0,0.58,0,1.15,0.061,1.72
	c0.446,6.724,3.443,13.022,8.38,17.61c-0.08,0.56-0.16,1.12-0.25,1.67l0.18,0.16c0.567,0.513,1.157,1,1.771,1.46l0.22,0.17
	c0,0.35,0,0.7,0,1c0,0.58,0,1.17-0.06,1.74c-0.061,0.57,0,0.92-0.061,1.38l-0.13-0.11l-9.77-8.16l-15.711-14.54
	c0,0-39.279-28.59-41.25-15c-0.237,2.414,0.429,4.83,1.87,6.78c7.21,11,32,20.36,32,20.36s14.78,15.63,24.67,32.48
	c-0.35,0.19-0.699,0.37-1.069,0.54c-8.8,4.09-21.641,2.36-21.641,2.36c-14.83,2.31-16.17,18.56-16.09,25.13c0,0.31,0,0.61,0,0.88
	s0,0.33,0,0.48l-19.68-46.21l-0.06-0.14c-1.306-3.058-4.081-5.237-7.36-5.78C725.611,126.079,692.722,121.469,695.472,131.179z
	 M777.861,580.179c0.287-0.067,0.577-0.121,0.87-0.159l-0.09,0.14L777.861,580.179z"/>
<path fill="#ACA9C9" d="M876.191,570.729c0,0,18.64,23.43,22.95,22.949c4.31-0.479,14.34,9.08,8.609,12
	c-5.729,2.92-38.72,4.78-55-7.649v-18.73L876.191,570.729z"/>
<path fill="#ACA9C9" d="M782.001,572.159c0,0-11,19.6-18.64,22c-7.64,2.399-14.34,11-4.3,13.39c10.04,2.391,45.899-2.87,49.24-8.609
	v-25.351L782.001,572.159z"/>
<path fill="#618FD8" d="M768.191,379.609l9.5,67.779v31.511c-0.029,4.78,0.549,9.545,1.72,14.18c3.101,11.93,0.55,53.55-0.89,73.3
	c-0.47,6.44-0.83,10.561-0.83,10.561c6.21-2.87,32.51,6.21,32.51,6.21l2.66-9.051l2.12-7.199c5.74-4.301,1-81.271,0-99
	c-0.65-12.11,4.75-51.37,8.21-74.9c1-6.65,1.81-12,2.3-15.22c0.311-2,0.48-3.11,0.48-3.11c1.054,0.859,1.93,1.916,2.58,3.11
	c0.822,1.413,1.528,2.892,2.109,4.42c9.62,24.31,14,93.81,14,100v65.359c-0.02,6.449,0.866,12.868,2.63,19.07
	c1.185,4.523,2.05,9.125,2.59,13.771c0.681,5.189,1,9.37,1,9.37c0.48-2.87,30.12-15.78,30.12-15.78v-109c0,0,1.431-43,5.74-85.58
	c1.853-19.368-0.015-38.913-5.5-57.58c-1.189-4.07-2.38-7.521-3.41-10.25c-1.75-4.649-3-7.22-3-7.22h-97.64
	c-1.64,0.31-3,3.61-4.23,8.62c-0.8,3.36-1.5,7.48-2.109,12c-1.811,13.311-2.85,29.881-3.35,39.461
	C767.249,369.506,767.48,374.586,768.191,379.609z"/>
<g opacity="0.1">
	<path d="M879.281,574.299v-109c0,0,1.43-43,5.74-85.58c4.31-42.58-12-75.06-12-75.06h1.91c0,0,16.25,32.51,12,75.06
		c-4.25,42.551-5.74,85.58-5.74,85.58v109c0,0-29.64,12.91-30.12,15.78c0,0,0-0.64-0.149-1.74
		C857.382,583.849,879.281,574.299,879.281,574.299z"/>
	<path d="M780.562,576.639c-0.902,0.019-1.794,0.202-2.63,0.54v-0.479C778.806,576.611,779.685,576.592,780.562,576.639z"/>
	<path d="M813.312,567.139c5.74-4.3,1-81.27,0-99c-1-17.729,11-93.22,11-93.22c0.628,0.485,1.184,1.058,1.649,1.7
		c-1.76,11.28-11.6,75.41-10.729,91.52c1,17.69,5.74,94.66,0,99l-4.78,16.25l-1.74-0.58L813.312,567.139z"/>
</g>
<path fill="#F7C4A7" d="M787.731,186.349l-10,35.38c0,0-10.521,10-19.12,0s-13.9-36.81-14.42-42.55c-0.52-5.74-8.13-35.38-11-35.38
	s-31.55,1.91-34.9-10c-2.68-9.58,29.341-5,42.16-2.85c3.209,0.546,5.914,2.697,7.17,5.7l19.66,46.95
	C767.281,183.599,777.691,171.529,787.731,186.349z"/>
<path fill="#F7C4A7" d="M852.271,104.119c0,0-12.43,34.9,3.35,47.33c15.78,12.43-56.43,15.78-56.43,15.78l9.8-9.32
	c0,0,6.931-27.49,2.15-50.44L852.271,104.119z"/>
<path opacity="0.1" enable-background="new    " d="M836.972,151.449c0,0,12.67-3.11,12.67-6.45l11.229,6.45h28.21
	c0,0,20.561,11.47,3.351,45.9s-9.561,119-9.561,119s-61.189-11-111.87,5.739c0,0,7.65-37.77,4.78-59.28
	c-2.87-21.51,4.78-51.63,4.78-51.63l4.3-18.17c0,0-0.24-17-17.93-8.37c0,0-2.63-24.62,15.54-27.49c0,0,21,2.87,27.25-7.65
	C809.722,149.539,823.592,157.669,836.972,151.449z"/>
<path fill="#E14B5A" d="M836.972,150.499c0,0,12.67-3.11,12.67-6.45l8.229,4.73c1.967,1.126,4.193,1.719,6.46,1.72h19.73
	c4.184-0.012,8.117,1.99,10.57,5.38c4.529,6.37,8.59,18.93-2.2,40.52c-17.21,34.42-9.561,119-9.561,119s-61.189-11-111.87,5.74
	c0,0,7.65-37.77,4.78-59.28c-2.87-21.51,4.78-51.56,4.78-51.56l4.3-18.17c0,0-0.24-17-17.93-8.37c0,0-2.561-23.939,14.79-27.36
	c0.481-0.107,0.978-0.141,1.47-0.1c3.71,0.39,21,1.64,26.54-7.729C809.722,148.579,823.592,156.709,836.972,150.499z"/>
<path opacity="0.1" enable-background="new    " d="M885.262,193.999c0,0-15.301,9.56-40.16,0c0,0-27.25-10-35.86-29.64
	c-8.609-19.64,43.5,3.35,43.5,3.35s11,0,14.34-2.39C870.422,162.929,893.861,183.479,885.262,193.999z"/>
<path fill="#F7C4A7" d="M885.262,192.089c0,0-15.301,9.56-40.16,0c0,0-27.25-10-35.86-29.64c-8.609-19.64-28.68-41.15-28.68-41.15
	s-34.9-13.39-33-26.77c1.899-13.38,40.16,14.82,40.16,14.82l15.3,14.34l49.72,42.07c0,0,11,0,14.34-2.39
	C870.422,160.979,893.861,181.569,885.262,192.089z"/>
<path opacity="0.1" enable-background="new    " d="M810.682,108.899l41.109-3.35c-2.113,6.32-3.551,12.847-4.29,19.47
	c-9.942,10.31-26.312,10.754-36.8,1C811.749,120.36,811.742,114.556,810.682,108.899z"/>
<circle fill="#F7C4A7" cx="829.092" cy="105.319" r="26.29"/>
<path opacity="0.1" enable-background="new    " d="M843.521,111.029c-1.54-2.54,1.59-5.85,0.56-8.63c-0.949-2.56-4.729-3-6-5.39
	c-1-1.93,0-4.3-0.399-6.43c-0.57-2.75-3.53-4.46-6.34-4.6c-2.811-0.14-5.521,0.91-8.19,1.81c-4.35,1.47-8.93,2.6-13.49,2.08
	c-4.56-0.52-9.109-3-11.14-7.07c-0.332-0.593-0.508-1.26-0.51-1.94c0.08-1.5,1.46-2.53,2.35-3.73c1.56-2.09,1.74-4.94,3.16-7.12
	c2.899-4.44,9.27-4.33,14.57-4.35c7.8,0,15.56-1.46,23.359-1.2c7.8,0.26,16,2.47,21.17,8.33c6.2,7.05,6.48,17.37,6.43,26.77
	c0,3.87-0.159,8.08-2.63,11.07c-0.72,0.87-1.6,1.59-2.29,2.48c-1.5,2-1.899,4.56-3.31,6.59c-2.5,3.61-7.38,4.49-11.729,5.07
	c1.279-0.17,0.22-8.74,0-9.53C848.251,111.299,847.342,111.379,843.521,111.029z"/>
<path fill="#281C1C" d="M843.521,110.079c-1.54-2.54,1.59-5.85,0.56-8.63c-0.949-2.56-4.729-3-6-5.39c-1-1.93,0-4.3-0.399-6.43
	c-0.57-2.75-3.53-4.46-6.34-4.6c-2.811-0.14-5.521,0.91-8.19,1.81c-4.35,1.47-8.93,2.6-13.49,2.08c-4.56-0.52-9.109-3-11.14-7.07
	c-0.332-0.593-0.508-1.261-0.51-1.94c0.08-1.5,1.46-2.53,2.35-3.73c1.56-2.09,1.74-4.94,3.16-7.12c2.899-4.44,9.27-4.33,14.57-4.35
	c7.8,0,15.56-1.46,23.359-1.2c7.8,0.26,16,2.47,21.17,8.33c6.2,7.05,6.48,17.37,6.43,26.77c0,3.87-0.159,8.08-2.63,11.07
	c-0.72,0.87-1.6,1.59-2.29,2.48c-1.5,2-1.899,4.56-3.31,6.59c-2.5,3.61-7.38,4.49-11.729,5.07c1.279-0.17,0.22-8.74,0-9.53
	C848.251,110.299,847.342,110.419,843.521,110.079z"/>
<path opacity="0.1" enable-background="new    " d="M885.021,195.199c0,0-12.91-33.47-22.95-34.42c-10.04-0.95,19.12,0,19.12,0
	l9.56,17.21L885.021,195.199z"/>
<path fill="#E14B5A" d="M885.981,195.199c0,0-12.91-33.47-22.95-34.42c-10.04-0.95,19.12,0,19.12,0l9.56,17.21L885.981,195.199z"/>
<path fill="#618FD8" d="M849.842,580.479c0.68,5.189,1,9.369,1,9.369c0.479-2.869,30.119-15.779,30.119-15.779v-7.771
	c-0.755-0.028-1.511,0.009-2.26,0.11c-5.75,0.77-11.08,3.56-16,6.54C858.546,575.677,854.254,578.189,849.842,580.479z"/>
<path opacity="0.3" enable-background="new    " d="M849.842,580.479c0.68,5.189,1,9.369,1,9.369
	c0.479-2.869,30.119-15.779,30.119-15.779v-7.771c-0.755-0.028-1.511,0.009-2.26,0.11c-5.75,0.77-11.08,3.56-16,6.54
	C858.546,575.677,854.254,578.189,849.842,580.479z"/>
<path fill="#618FD8" d="M777.691,576.939c6.21-2.87,32.51,6.21,32.51,6.21l2.66-9.05c-4.59-0.931-9.15-2.091-13.63-3.471
	c-2.092-0.605-4.137-1.36-6.12-2.26c-1.324-0.708-2.687-1.342-4.08-1.9c-3.43-1.18-7-0.68-10.52-0.09
	C778.052,572.819,777.691,576.939,777.691,576.939z"/>
<path opacity="0.3" enable-background="new    " d="M777.691,576.939c6.21-2.87,32.51,6.21,32.51,6.21l2.66-9.05
	c-4.59-0.931-9.15-2.091-13.63-3.471c-2.092-0.605-4.137-1.36-6.12-2.26c-1.324-0.708-2.687-1.342-4.08-1.9
	c-3.43-1.18-7-0.68-10.52-0.09C778.052,572.819,777.691,576.939,777.691,576.939z"/>
<path opacity="0.4" fill="#FFFFFF" enable-background="new    " d="M907.491,604.189c0.811-0.348,1.415-1.048,1.641-1.9
	c0.368,1.364-0.334,2.79-1.641,3.33c-5.739,2.87-38.72,4.78-55-7.65v-1.43C868.771,608.969,901.752,607.059,907.491,604.189z"/>
<path opacity="0.4" fill="#FFFFFF" enable-background="new    " d="M758.812,606.099c10,2.391,45.899-2.869,49.24-8.609v1.43
	c-3.351,5.74-39.2,11-49.24,8.61c-4.101-1-5.41-3-5-5.19C754.132,603.959,755.632,605.299,758.812,606.099z"/>
<path opacity="0.1" enable-background="new    " d="M817.132,257.829c0,0-10.521-3.35-13.391,0s-27.399,11.2-27.399,11.2"/>
<rect x="698.102" y="125.389" fill="#8ED16F" width="51.149" height="1.08"/>
<rect x="698.102" y="126.469" fill="#8ED16F" width="51.149" height="1.08"/>
<rect x="698.102" y="126.469" opacity="0.1" enable-background="new    " width="51.149" height="1.08"/>
<rect x="698.102" y="127.549" fill="#8ED16F" width="51.149" height="1.08"/>
<rect x="698.102" y="128.619" fill="#8ED16F" width="51.149" height="1.08"/>
<rect x="698.102" y="128.619" opacity="0.1" enable-background="new    " width="51.149" height="1.08"/>
<rect x="698.102" y="129.699" fill="#8ED16F" width="51.149" height="1.08"/>
<rect x="698.102" y="130.769" fill="#8ED16F" width="51.149" height="1.08"/>
<rect x="698.102" y="130.769" opacity="0.1" enable-background="new    " width="51.149" height="1.08"/>
<rect x="698.102" y="131.849" fill="#8ED16F" width="51.149" height="1.08"/>
<rect x="698.102" y="132.919" fill="#8ED16F" width="51.149" height="1.08"/>
<rect x="698.102" y="132.919" opacity="0.1" enable-background="new    " width="51.149" height="1.08"/>
<rect x="698.102" y="116.789" fill="#8ED16F" width="51.149" height="1.08"/>
<rect x="728.715" y="107.698" transform="matrix(0.7688 0.6394 -0.6394 0.7688 243.5742 -457.3043)" fill="#8ED16F" width="51.15" height="1.08"/>
<rect x="692.86" y="90.49" transform="matrix(0.7688 0.6394 -0.6394 0.7688 224.2826 -438.3552)" fill="#8ED16F" width="51.15" height="1.08"/>
<rect x="698.102" y="117.859" fill="#8ED16F" width="51.149" height="1.08"/>
<rect x="698.102" y="117.859" opacity="0.1" enable-background="new    " width="51.149" height="1.08"/>
<rect x="698.102" y="118.949" fill="#8ED16F" width="51.149" height="1.08"/>
<rect x="698.102" y="120.019" fill="#8ED16F" width="51.149" height="1.08"/>
<rect x="698.102" y="120.019" opacity="0.1" enable-background="new    " width="51.149" height="1.08"/>
<rect x="698.102" y="121.089" fill="#8ED16F" width="51.149" height="1.08"/>
<rect x="698.102" y="122.169" fill="#8ED16F" width="51.149" height="1.08"/>
<rect x="698.102" y="122.169" opacity="0.1" enable-background="new    " width="51.149" height="1.08"/>
<rect x="698.102" y="123.239" fill="#8ED16F" width="51.149" height="1.08"/>
<rect x="698.102" y="124.319" fill="#8ED16F" width="51.149" height="1.08"/>
<rect x="698.102" y="124.319" opacity="0.1" enable-background="new    " width="51.149" height="1.08"/>
<rect x="694.778" y="133.009" transform="matrix(0.9832 0.1826 -0.1826 0.9832 39.4383 -126.0174)" fill="#8ED16F" width="18.64" height="36.33"/>
<ellipse transform="matrix(-0.9832 -0.1826 0.1826 -0.9832 1369.2406 428.6395)" fill="#8ED16F" cx="704.353" cy="151.287" rx="3.82" ry="7.65"/>
<ellipse transform="matrix(-0.9832 -0.1826 0.1826 -0.9832 1369.2406 428.6395)" opacity="0.1" enable-background="new    " cx="704.353" cy="151.287" rx="3.82" ry="7.65"/>
<rect x="697.914" y="208.403" transform="matrix(0.9832 0.1826 -0.1826 0.9832 53.2569 -125.3226)" fill="#8ED16F" width="18.64" height="36.33"/>
<ellipse transform="matrix(-0.9832 -0.1826 0.1826 -0.9832 1361.6772 578.7146)" fill="#8ED16F" cx="707.479" cy="226.673" rx="3.82" ry="7.65"/>
<ellipse transform="matrix(-0.9832 -0.1826 0.1826 -0.9832 1361.6772 578.7146)" opacity="0.1" enable-background="new    " cx="707.479" cy="226.673" rx="3.82" ry="7.65"/>
<rect x="630.688" y="56.086" transform="matrix(-0.4759 0.8795 -0.8795 -0.4759 1009.9047 -453.2903)" fill="#8ED16F" width="18.64" height="36.33"/>
<ellipse transform="matrix(-0.8779 -0.4788 0.4788 -0.8779 1171.8229 448.7117)" fill="#8ED16F" cx="643.12" cy="74.955" rx="7.668" ry="3.829"/>
<ellipse transform="matrix(-0.8779 -0.4788 0.4788 -0.8779 1171.8229 448.7117)" opacity="0.1" enable-background="new    " cx="643.12" cy="74.955" rx="7.668" ry="3.829"/>
<rect x="560.53" y="379.611" transform="matrix(-0.476 0.8795 -0.8795 -0.476 1190.9065 85.9369)" fill="#8ED16F" width="18.64" height="36.329"/>
<ellipse transform="matrix(-0.8795 -0.476 0.476 -0.8795 881.3948 1019.1935)" fill="#8ED16F" cx="569.748" cy="397.995" rx="7.65" ry="3.82"/>
<ellipse transform="matrix(-0.8795 -0.476 0.476 -0.8795 881.3948 1019.1935)" opacity="0.1" enable-background="new    " cx="569.748" cy="397.995" rx="7.65" ry="3.82"/>
<rect x="517.605" y="112.628" transform="matrix(-0.476 0.8795 -0.8795 -0.476 892.7489 -270.3682)" fill="#8ED16F" width="18.64" height="36.33"/>
<ellipse transform="matrix(-0.8795 -0.4759 0.4759 -0.8795 927.7918 496.9345)" fill="#8ED16F" cx="526.814" cy="130.997" rx="7.65" ry="3.82"/>
<ellipse transform="matrix(-0.8795 -0.4759 0.4759 -0.8795 927.7918 496.9345)" opacity="0.1" enable-background="new    " cx="526.814" cy="130.997" rx="7.65" ry="3.82"/>
<rect x="571.405" y="56.082" transform="matrix(-0.4759 0.8795 -0.8795 -0.4759 922.4036 -401.1579)" fill="#8ED16F" width="18.64" height="36.33"/>
<ellipse transform="matrix(-0.8795 -0.4759 0.4759 -0.8795 1055.8175 416.263)" fill="#8ED16F" cx="580.613" cy="74.452" rx="7.65" ry="3.82"/>
<ellipse transform="matrix(-0.8795 -0.4759 0.4759 -0.8795 1055.8175 416.263)" opacity="0.1" enable-background="new    " cx="580.613" cy="74.452" rx="7.65" ry="3.82"/>
<rect x="606.288" y="125.031" transform="matrix(-0.9941 0.1087 -0.1087 -0.9941 1243.1334 218.6184)" fill="#8ED16F" width="18.64" height="36.33"/>
<ellipse transform="matrix(-0.1087 -0.9941 0.9941 -0.1087 539.8735 770.5114)" fill="#8ED16F" cx="615.363" cy="143.226" rx="7.65" ry="3.82"/>
<ellipse transform="matrix(-0.1087 -0.9941 0.9941 -0.1087 539.8735 770.5114)" opacity="0.1" enable-background="new    " cx="615.363" cy="143.226" rx="7.65" ry="3.82"/>
<rect x="733.329" y="322.788" transform="matrix(-0.9941 0.1087 -0.1087 -0.9941 1517.9612 599.1516)" fill="#8ED16F" width="18.64" height="36.331"/>
<ellipse transform="matrix(-0.1087 -0.9941 0.9941 -0.1087 484.1497 1116.0631)" fill="#8ED16F" cx="742.413" cy="340.984" rx="7.65" ry="3.82"/>
<ellipse transform="matrix(-0.1087 -0.9941 0.9941 -0.1087 484.1497 1116.0631)" opacity="0.1" enable-background="new    " cx="742.413" cy="340.984" rx="7.65" ry="3.82"/>
<rect x="552.561" y="199.519" transform="matrix(-0.4759 0.8795 -0.8795 -0.4759 1020.7429 -172.8835)" fill="#8ED16F" width="18.64" height="36.33"/>
<ellipse transform="matrix(-0.8795 -0.4759 0.4759 -0.8795 952.1173 676.9049)" fill="#8ED16F" cx="561.763" cy="217.903" rx="7.65" ry="3.82"/>
<ellipse transform="matrix(-0.8795 -0.4759 0.4759 -0.8795 952.1173 676.9049)" opacity="0.1" enable-background="new    " cx="561.763" cy="217.903" rx="7.65" ry="3.82"/>
<rect x="471.932" y="176.491" transform="matrix(-0.4759 0.8795 -0.8795 -0.4759 881.4883 -135.9585)" fill="#8ED16F" width="18.64" height="36.33"/>
<ellipse transform="matrix(-0.8779 -0.4789 0.4789 -0.8779 814.6785 599.6096)" fill="#8ED16F" cx="483.791" cy="195.932" rx="7.668" ry="3.829"/>
<ellipse transform="matrix(-0.8779 -0.4789 0.4789 -0.8779 814.6785 599.6096)" opacity="0.1" enable-background="new    " cx="483.791" cy="195.932" rx="7.668" ry="3.829"/>
<rect x="446.109" y="564.198" transform="matrix(-0.4759 0.8795 -0.8795 -0.4759 1184.3589 458.977)" fill="#8ED16F" width="18.64" height="36.33"/>
<ellipse transform="matrix(-0.8795 -0.4759 0.4759 -0.8795 578.5143 1311.63)" fill="#8ED16F" cx="455.316" cy="582.572" rx="7.65" ry="3.82"/>
<ellipse transform="matrix(-0.8795 -0.4759 0.4759 -0.8795 578.5143 1311.63)" opacity="0.1" enable-background="new    " cx="455.316" cy="582.572" rx="7.65" ry="3.82"/>
<rect x="427.483" y="566.152" transform="matrix(-0.1824 0.9832 -0.9832 -0.1824 1090.9984 261.4378)" fill="#8ED16F" width="18.64" height="36.33"/>
<rect x="427.483" y="566.152" transform="matrix(-0.1824 0.9832 -0.9832 -0.1824 1090.9984 261.4378)" opacity="0.05" enable-background="new    " width="18.64" height="36.33"/>
<ellipse transform="matrix(-0.9832 -0.1823 0.1823 -0.9832 759.6169 1238.9421)" fill="#8ED16F" cx="436.766" cy="584.549" rx="7.65" ry="3.82"/>
<ellipse transform="matrix(-0.9832 -0.1823 0.1823 -0.9832 759.6169 1238.9421)" opacity="0.1" enable-background="new    " cx="436.766" cy="584.549" rx="7.65" ry="3.82"/>
<rect x="430.829" y="577.143" transform="matrix(-0.1824 0.9832 -0.9832 -0.1824 1105.7625 271.1436)" fill="#8ED16F" width="18.64" height="36.33"/>
<ellipse transform="matrix(-0.9832 -0.1824 0.1824 -0.9832 764.1888 1261.3682)" fill="#8ED16F" cx="440.103" cy="595.54" rx="7.65" ry="3.82"/>
<ellipse transform="matrix(-0.9832 -0.1824 0.1824 -0.9832 764.1888 1261.3682)" opacity="0.1" enable-background="new    " cx="440.103" cy="595.54" rx="7.65" ry="3.82"/>
<rect x="483.798" y="611.317" transform="matrix(-0.4759 0.8795 -0.8795 -0.4759 1281.4248 495.3726)" fill="#8ED16F" width="18.64" height="36.329"/>
<ellipse transform="matrix(-0.8795 -0.4759 0.4759 -0.8795 626.9459 1418.1296)" fill="#8ED16F" cx="493.015" cy="629.69" rx="7.65" ry="3.82"/>
<ellipse transform="matrix(-0.8795 -0.4759 0.4759 -0.8795 626.9459 1418.1296)" opacity="0.1" enable-background="new    " cx="493.015" cy="629.69" rx="7.65" ry="3.82"/>
<rect x="465.179" y="613.257" transform="matrix(-0.1824 0.9832 -0.9832 -0.1824 1181.8865 280.0728)" fill="#8ED16F" width="18.64" height="36.33"/>
<rect x="465.179" y="613.257" transform="matrix(-0.1824 0.9832 -0.9832 -0.1824 1181.8865 280.0728)" opacity="0.05" enable-background="new    " width="18.64" height="36.33"/>
<ellipse transform="matrix(-0.9832 -0.1824 0.1824 -0.9832 825.7239 1339.2584)" fill="#8ED16F" cx="474.453" cy="631.655" rx="7.65" ry="3.82"/>
<ellipse transform="matrix(-0.9832 -0.1824 0.1824 -0.9832 825.7239 1339.2584)" opacity="0.1" enable-background="new    " cx="474.453" cy="631.655" rx="7.65" ry="3.82"/>
<rect x="468.524" y="624.26" transform="matrix(-0.1824 0.9832 -0.9832 -0.1824 1196.6597 289.7943)" fill="#8ED16F" width="18.64" height="36.33"/>
<ellipse transform="matrix(-0.9832 -0.1824 0.1824 -0.9832 830.3623 1361.6938)" fill="#8ED16F" cx="477.808" cy="642.657" rx="7.65" ry="3.82"/>
<ellipse transform="matrix(-0.9832 -0.1824 0.1824 -0.9832 830.3623 1361.6938)" opacity="0.1" enable-background="new    " cx="477.808" cy="642.657" rx="7.65" ry="3.82"/>
<rect x="540.347" y="580.951" transform="matrix(-0.4759 0.8795 -0.8795 -0.4759 1338.1797 400.8223)" fill="#8ED16F" width="18.64" height="36.33"/>
<ellipse transform="matrix(-0.8795 -0.4759 0.4759 -0.8795 747.6459 1387.9519)" fill="#8ED16F" cx="549.544" cy="599.32" rx="7.65" ry="3.82"/>
<ellipse transform="matrix(-0.8795 -0.4759 0.4759 -0.8795 747.6459 1387.9519)" opacity="0.1" enable-background="new    " cx="549.544" cy="599.32" rx="7.65" ry="3.82"/>
<rect x="521.721" y="582.898" transform="matrix(-0.1824 0.9832 -0.9832 -0.1824 1218.8691 188.54)" fill="#8ED16F" width="18.641" height="36.33"/>
<rect x="521.721" y="582.898" transform="matrix(-0.1824 0.9832 -0.9832 -0.1824 1218.8691 188.54)" opacity="0.05" enable-background="new    " width="18.641" height="36.33"/>
<ellipse transform="matrix(-0.9832 -0.1824 0.1824 -0.9832 943.3901 1289.3678)" fill="#8ED16F" cx="530.995" cy="601.296" rx="7.65" ry="3.82"/>
<ellipse transform="matrix(-0.9832 -0.1824 0.1824 -0.9832 943.3901 1289.3678)" opacity="0.1" enable-background="new    " cx="530.995" cy="601.296" rx="7.65" ry="3.82"/>
<rect x="525.066" y="593.899" transform="matrix(-0.1824 0.9832 -0.9832 -0.1824 1233.665 198.3007)" fill="#8ED16F" width="18.64" height="36.329"/>
<ellipse transform="matrix(-0.9832 -0.1824 0.1824 -0.9832 948.0449 1311.7943)" fill="#8ED16F" cx="534.35" cy="612.298" rx="7.65" ry="3.82"/>
<ellipse transform="matrix(-0.9832 -0.1824 0.1824 -0.9832 948.0449 1311.7943)" opacity="0.1" enable-background="new    " cx="534.35" cy="612.298" rx="7.65" ry="3.82"/>
</svg>
