<?xml version="1.0" encoding="utf-8"?>
<!-- Generator: Adobe Illustrator 16.0.0, SVG Export Plug-In . SVG Version: 6.00 Build 0)  -->
<!DOCTYPE svg PUBLIC "-//W3C//DTD SVG 1.1//EN" "http://www.w3.org/Graphics/SVG/1.1/DTD/svg11.dtd">
<svg version="1.1" id="a0f4c522-d0e8-404b-95f8-59a6be9d5f61"
	 xmlns="http://www.w3.org/2000/svg" xmlns:xlink="http://www.w3.org/1999/xlink" x="0px" y="0px" width="985.586px"
	 height="661.152px" viewBox="0 0 985.586 661.152" enable-background="new 0 0 985.586 661.152" xml:space="preserve">
<title>book_reading</title>
<path fill="#E1C158" d="M830.524,320.805c0.26,85.461-33.459,167.521-93.729,228.11c-3.291,3.31-6.654,6.543-10.092,9.7
	c-4.139,3.819-8.387,7.523-12.738,11.109c-0.83,0.69-1.66,1.37-2.5,2.04c-17.197,13.937-35.822,26.014-55.561,36.03
	c-1.17,0.59-2.34,1.18-3.52,1.76c-1.871,0.92-3.762,1.82-5.65,2.7c-69.965,32.557-149.529,37.956-223.25,15.15
	c-129.07-40.061-222.96-162.17-222.96-306.6c0-177.01,141.03-320.5,315-320.5C689.495,0.305,830.524,143.795,830.524,320.805z"/>
<path fill="#3F3D56" d="M585.659,253.571l0.25-0.01l-0.986-2.166c-1.107-3.068-2.461-6.042-4.049-8.891l-28.936-63.53
	c-1.887-4.144-6.051-6.774-10.604-6.698l-36.645,0.61c-4.855,0.081-9.131,3.218-10.666,7.827L470.988,249.9
	c-0.758,1.938-1.416,3.913-1.971,5.918l-0.781,2.349l0.184-0.007c-7.656,32.724,12.666,65.458,45.391,73.114
	c32.723,7.655,65.457-12.667,73.113-45.391C589.424,275.196,588.987,264.031,585.659,253.571L585.659,253.571z"/>
<rect x="480.213" y="219.398" transform="matrix(-0.1799 0.9837 -0.9837 -0.1799 820.8864 -244.2418)" fill="#E1C158" width="64.08" height="1.322"/>
<rect x="536.723" y="187.6" transform="matrix(-0.9771 0.2126 -0.2126 -0.9771 1109.1742 320.0397)" fill="#E1C158" width="1.323" height="64.08"/>
<path fill="#3F3D56" d="M500.698,141.861l46.955-0.782c0.73-0.012,1.332,0.57,1.344,1.301s-0.57,1.333-1.301,1.345l0,0
	l-46.955,0.782c-0.73,0.014-1.334-0.567-1.348-1.297s0.566-1.334,1.297-1.348C500.692,141.861,500.696,141.861,500.698,141.861
	L500.698,141.861z"/>
<path fill="#3F3D56" d="M501.194,151.776l46.953-0.782c0.73-0.014,1.334,0.567,1.35,1.297c0.014,0.73-0.568,1.334-1.299,1.348
	c-0.002,0-0.004,0-0.006,0l-46.955,0.782c-0.73,0.01-1.33-0.574-1.342-1.304C499.885,152.39,500.465,151.79,501.194,151.776z"/>
<path fill="#3F3D56" d="M501.69,161.69l46.953-0.782c0.73-0.012,1.334,0.57,1.346,1.301s-0.57,1.333-1.301,1.345l-46.955,0.782
	c-0.73,0.01-1.33-0.573-1.342-1.304C500.381,162.304,500.961,161.705,501.69,161.69z"/>
<path fill="#3F3D56" d="M524.018,132.036c-9.314,0.155-16.777,5.472-16.672,11.875l33.729-0.562
	C540.967,136.946,533.331,131.881,524.018,132.036z"/>
<path fill="#E1C158" d="M529.208,260.766c1.84,0.125,3.584,0.87,4.945,2.113c0.35,0.289,0.691,0.592,1.035,0.896
	c1.088,1.135,2.422,2.007,3.896,2.55c3.232,0.882,6.424-1.674,9.115-4.29l0.924,0.949c-2.961,2.877-6.51,5.675-10.387,4.618
	c-1.674-0.59-3.189-1.56-4.424-2.835c-0.334-0.295-0.666-0.589-1.004-0.869c-1.105-0.917-3.24-2.343-5.139-1.604
	c-0.787,0.384-1.488,0.925-2.059,1.589c-0.443,0.465-0.92,0.896-1.43,1.287c-2.131,1.512-4.963,1.597-7.18,0.213
	c-0.389-0.26-0.764-0.542-1.123-0.842c-0.59-0.584-1.322-1.001-2.125-1.209c-1.123-0.158-2.145,0.645-3.229,1.494
	c-1.021,0.995-2.33,1.646-3.742,1.859c-0.047,0.002-0.096,0.004-0.145,0.005c-2.635,0.044-4.307-2.592-5.342-4.597l1.176-0.606
	c1.406,2.725,2.76,3.967,4.24,3.877c1.135-0.217,2.178-0.767,2.998-1.579c1.25-0.982,2.547-1.997,4.227-1.763
	c1.045,0.228,2.006,0.744,2.773,1.491c0.322,0.27,0.658,0.523,1.006,0.757c1.76,1.077,3.992,1.011,5.686-0.169
	c0.453-0.351,0.879-0.737,1.273-1.153c0.695-0.799,1.551-1.442,2.514-1.886C528.174,260.873,528.688,260.773,529.208,260.766z"/>
<rect x="524.133" fill="#3F3D56" width="1.375" height="131.982"/>
<circle fill="#2F2E41" cx="670.342" cy="285.189" r="19.235"/>
<path fill="#2F2E41" d="M649.733,276.945c0.002-9.824,7.406-18.068,17.174-19.121c-10.559-1.153-20.055,6.472-21.209,17.032
	c-1.152,10.56,6.473,20.056,17.033,21.209c1.387,0.151,2.789,0.151,4.176,0C657.139,295.014,649.735,286.77,649.733,276.945z"/>
<path fill="#E1C158" d="M651.108,285.189c0,0-2.988,13.739,15.68,19.234L651.108,285.189z"/>
<circle fill="#2F2E41" cx="678.297" cy="351.265" r="64.573"/>
<path fill="#A0616A" d="M713.965,569.725c-0.83,0.69-1.66,1.37-2.5,2.04c-17.197,13.937-35.822,26.014-55.561,36.03
	c-1.17,0.59-2.34,1.18-3.52,1.76c-1.871,0.92-3.762,1.82-5.65,2.7l-33.1-11.03l0.379-7.93v-0.03l1.439-30.239l0.49-10.341
	L713.965,569.725z"/>
<path fill="#2F2E41" d="M652.385,609.555c-1.871,0.92-3.762,1.82-5.65,2.7c-12.93,6.045-26.266,11.181-39.91,15.37
	c-0.07-0.2-0.109-0.409-0.121-0.62l6.932-33.87l0.379,0.16L652.385,609.555z"/>
<circle fill="#A0616A" cx="662.178" cy="377.012" r="42.762"/>
<path fill="#A0616A" d="M696.85,379.323c0,0,6.934,34.672,19.646,42.762l-70.498,83.212l-26.582-25.426l19.646-34.672
	c0,0,21.959-12.713,15.025-30.049L696.85,379.323z"/>
<path fill="#A0616A" d="M780.514,494.155c-12.529,19.794-27.191,38.157-43.719,54.76c-0.711-15.5-2.25-28.28-5.271-32.061
	c-0.008,0-0.014-0.004-0.02-0.01l-36.971-11.55c0,0,8.09-76.28,27.74-79.74c0,0,2.85,0.58,7.281,1.92
	c14.279,4.301,44.939,16.42,49.35,41.99C780.159,477.633,780.698,485.894,780.514,494.155z"/>
<path fill="#A0616A" d="M639.063,445.199c0,0-34.67-1.155-56.629,26.582s-75.123,48.54-75.123,48.54l-132.908,52.008
	c0,0-24.271-42.762-39.295-27.737s27.737,53.163,47.385,48.54c19.647-4.622,138.687-40.45,138.687-40.45l94.77-42.762
	L639.063,445.199z"/>
<path fill="#D0CDE1" d="M731.524,516.854l-4.82,41.761c-4.139,3.819-8.387,7.523-12.738,11.109c-0.83,0.69-1.66,1.37-2.5,2.04
	c-33.371-10.229-85.66-9.09-96.012-8.739c-1.18,0.029-1.818,0.06-1.818,0.06l-1.15-24.271c-11.09-3.689-14.73-11.76-14.83-20.64
	c-0.17-16.1,11.359-34.84,11.359-34.84c2.07-2.07,17.541-31.4,20.74-37.48c0.369-0.71,0.58-1.1,0.58-1.1l13.869-3.46
	c0,0-0.039,0.11-0.119,0.31c-1.24,3.471-12.02,34.86,6.539,35.95c18.262,1.08,57.98-50.2,63.451-57.39
	c0.41-0.54,0.629-0.83,0.629-0.83l15.031,8.09c-0.061,0.021-0.121,0.03-0.18,0.05c-9.182,2.55-17.682,24.66-17.682,24.66
	c-23.969,42.24,18.58,64.18,19.631,64.71C731.51,516.851,731.516,516.854,731.524,516.854z"/>
<path fill="#2F2E41" d="M664.502,326.818c-22.764,0-41.217,10.764-41.217,24.043c0,5.941,3.709,11.371,9.832,15.566l7.934-5.75
	l-2.158,9.008c0.896,0.414,1.811,0.816,2.764,1.188l11.854-13.829v16.989c3.635,0.582,7.311,0.873,10.99,0.871
	c22.764,0,41.217-10.765,41.217-24.043C705.717,337.582,687.264,326.818,664.502,326.818z"/>
<circle fill="#2F2E41" cx="748.932" cy="315.238" r="19.235"/>
<path fill="#2F2E41" d="M728.323,306.994c0.002-9.824,7.406-18.068,17.174-19.121c-0.684-0.074-1.373-0.112-2.061-0.114
	c-10.623-0.015-19.248,8.584-19.262,19.207c-0.016,10.623,8.582,19.247,19.205,19.262c0.707,0.001,1.414-0.037,2.117-0.114
	C735.729,325.063,728.325,316.818,728.323,306.994z"/>
<path fill="#E1C158" d="M729.698,315.238c0,0-2.988,13.739,15.68,19.235L729.698,315.238z"/>
<ellipse fill="#A0616A" cx="706.674" cy="373.544" rx="3.338" ry="7.512"/>
<path fill="#D0CDE1" d="M338.182,402.606l-50.677,12.278l-0.166,0.039l-5.509,4.987l-1.585,1.434l-3.399-0.616l-6.017-1.087
	l4.193-14.152l0.787-26.993l-2.883-16.511l15.986-11.007C288.912,350.979,320.099,349.144,338.182,402.606z"/>
<path opacity="0.1" enable-background="new    " d="M287.504,414.885c-0.687,1.465,0.752,0.498-0.034,2.005l-7.338,2.358
	l-3.286,1.48l-6.017-1.087l4.193-14.152l0.786-26.993l-2.883-16.511l15.987-11.007C288.912,350.979,306.069,375.277,287.504,414.885
	z"/>
<path fill="#D0CDE1" d="M397.934,363.82c0,0-66.566,30.924-93.56,35.642c-26.994,4.717-24.635,31.711-24.635,31.711l151.216-23.587
	C430.955,407.586,425.714,383.213,397.934,363.82z"/>
<path fill="#E1C158" d="M269.518,358.578c0,0,11.531,28.042-1.311,62.897l14.938,6.814l5.766-6.814l0.131-0.655l-15.855-1.441
	c0,0,13.104-35.117,2.359-59.49C275.546,359.889,273.187,354.646,269.518,358.578z"/>
<path fill="#3F3D56" d="M489.397,566.402c-58.966-13.104-113.871,14.021-113.871,14.021l-0.149-0.134l-21.864-19.522
	l-85.436-139.423l20.835,0.131C346.83,386.883,428.335,391.6,428.335,391.6C463.452,431.435,489.397,566.402,489.397,566.402z"/>
<path opacity="0.1" enable-background="new    " d="M375.377,580.29l-21.864-19.522l-85.436-139.423l20.835,0.131
	C288.912,421.476,371.952,531.151,375.377,580.29z"/>
<ellipse transform="matrix(-0.2932 -0.956 0.956 -0.2932 58.5786 945.2237)" fill="#D0CDE1" cx="378.672" cy="450.959" rx="21.49" ry="33.807"/>
</svg>
