<svg width="493" height="863" viewBox="0 0 493 863" fill="none" xmlns="http://www.w3.org/2000/svg">
<path d="M392.31 530.92C447.517 530.92 492.27 486.166 492.27 430.96C492.27 375.754 447.517 331 392.31 331C337.104 331 292.35 375.754 292.35 430.96C292.35 486.166 337.104 530.92 392.31 530.92Z" fill="#3F3D56"/>
<path d="M449.16 400.76L419.23 431.21C419.177 431.26 419.135 431.321 419.107 431.388C419.078 431.455 419.063 431.527 419.063 431.6C419.063 431.673 419.078 431.745 419.107 431.812C419.135 431.879 419.177 431.94 419.23 431.99L440.23 454.32C440.732 454.826 441.074 455.469 441.212 456.169C441.35 456.869 441.279 457.594 441.006 458.253C440.734 458.912 440.273 459.476 439.681 459.874C439.089 460.272 438.393 460.486 437.68 460.49C436.72 460.488 435.8 460.107 435.12 459.43L414.23 437.18C414.123 437.075 413.98 437.016 413.83 437.016C413.68 437.016 413.537 437.075 413.43 437.18L408.34 442.32C406.256 444.451 403.767 446.144 401.019 447.3C398.272 448.456 395.321 449.051 392.34 449.05C389.303 449.036 386.299 448.417 383.503 447.229C380.708 446.04 378.178 444.307 376.06 442.13L371.17 437.13C371.063 437.025 370.92 436.966 370.77 436.966C370.62 436.966 370.477 437.025 370.37 437.13L349.53 459.33C349.195 459.666 348.796 459.932 348.358 460.114C347.92 460.296 347.45 460.39 346.975 460.39C346.5 460.39 346.03 460.296 345.592 460.114C345.154 459.932 344.755 459.666 344.42 459.33C344.083 458.995 343.815 458.597 343.633 458.159C343.45 457.72 343.356 457.25 343.356 456.775C343.356 456.3 343.45 455.83 343.633 455.391C343.815 454.953 344.083 454.555 344.42 454.22L365.34 431.94C365.433 431.831 365.484 431.693 365.484 431.55C365.484 431.407 365.433 431.269 365.34 431.16L335.41 400.71C335.333 400.633 335.235 400.58 335.128 400.559C335.021 400.537 334.91 400.548 334.809 400.59C334.708 400.632 334.622 400.702 334.562 400.793C334.502 400.884 334.47 400.991 334.47 401.1V462.03C334.478 464.385 335.417 466.642 337.083 468.307C338.748 469.973 341.005 470.912 343.36 470.92H441.23C443.585 470.912 445.842 469.973 447.507 468.307C449.173 466.642 450.112 464.385 450.12 462.03V401.15C450.125 401.037 450.095 400.924 450.033 400.829C449.972 400.733 449.883 400.659 449.778 400.616C449.672 400.574 449.557 400.565 449.446 400.59C449.335 400.616 449.236 400.675 449.16 400.76Z" fill="#E1C158"/>
<path d="M392.31 441.82C394.339 441.84 396.351 441.452 398.227 440.679C400.103 439.906 401.804 438.763 403.23 437.32L446.82 392.95C445.273 391.668 443.329 390.961 441.32 390.95H343.38C341.37 390.957 339.425 391.664 337.88 392.95L381.48 437.32C382.893 438.755 384.579 439.893 386.44 440.666C388.3 441.439 390.296 441.831 392.31 441.82Z" fill="#E1C158"/>
<path opacity="0.1" d="M391.05 331.01C371.268 331 351.927 336.858 335.474 347.842C319.022 358.827 306.197 374.444 298.622 392.719C291.047 410.993 289.062 431.104 292.919 450.507C296.776 469.91 306.301 487.732 320.289 501.721C334.278 515.709 352.101 525.234 371.503 529.091C390.906 532.948 411.017 530.963 429.291 523.388C447.566 515.813 463.183 502.988 474.168 486.536C485.152 470.083 491.01 450.742 491 430.96C490.987 404.456 480.452 379.041 461.711 360.299C442.969 341.558 417.554 331.023 391.05 331.01ZM391.05 517.63C373.908 517.63 357.152 512.547 342.899 503.024C328.646 493.5 317.537 479.964 310.977 464.127C304.418 448.29 302.701 430.864 306.045 414.052C309.39 397.239 317.644 381.796 329.765 369.675C341.886 357.554 357.329 349.3 374.142 345.955C390.954 342.611 408.38 344.328 424.217 350.887C440.054 357.447 453.59 368.556 463.114 382.809C472.637 397.062 477.72 413.818 477.72 430.96C477.72 453.946 468.589 475.991 452.335 492.245C436.081 508.499 414.036 517.63 391.05 517.63Z" fill="black"/>
<path d="M191.05 199.92C246.256 199.92 291.01 155.166 291.01 99.96C291.01 44.7536 246.256 0 191.05 0C135.844 0 91.0901 44.7536 91.0901 99.96C91.0901 155.166 135.844 199.92 191.05 199.92Z" fill="#3F3D56"/>
<path d="M233.96 125.74C230.48 122.26 222.11 117.01 217.96 115.05C213.17 112.75 211.41 112.79 208.02 115.24C205.2 117.24 203.37 119.17 200.13 118.46C196.89 117.75 190.47 112.91 184.26 106.72C178.05 100.53 173.23 94.1501 172.54 90.8601C171.85 87.5701 173.75 85.7801 175.77 82.9601C178.21 79.5701 178.28 77.8101 175.96 73.0201C173.96 68.8701 168.77 60.5201 165.26 57.0201C161.75 53.5201 160.99 54.2901 159.07 55.0201C157.094 55.8484 155.197 56.8524 153.4 58.0201C149.92 60.3501 147.97 62.2901 146.6 65.2101C145.23 68.1301 143.68 73.5501 151.65 87.7401C157.53 98.5955 164.976 108.525 173.75 117.21C182.464 126.004 192.428 133.464 203.32 139.35C217.5 147.35 222.93 145.76 225.85 144.4C228.77 143.04 230.71 141.11 233.03 137.6C234.2 135.805 235.204 133.907 236.03 131.93C236.69 130.01 237.47 129.23 233.96 125.74Z" fill="#E1C158"/>
<path opacity="0.1" d="M191.05 0.0100223C171.268 0.000133542 151.927 5.8579 135.474 16.8422C119.022 27.8266 106.197 43.4439 98.6217 61.7186C91.0467 79.9932 89.0622 100.104 92.9191 119.507C96.776 138.91 106.301 156.732 120.289 170.721C134.278 184.709 152.1 194.234 171.503 198.091C190.906 201.948 211.017 199.963 229.291 192.388C247.566 184.813 263.183 171.988 274.168 155.536C285.152 139.083 291.01 119.742 291 99.96C290.987 73.4557 280.452 48.0407 261.711 29.2994C242.969 10.558 217.554 0.0232711 191.05 0.0100223ZM191.05 186.63C173.908 186.63 157.152 181.547 142.899 172.024C128.646 162.5 117.537 148.964 110.977 133.127C104.418 117.29 102.701 99.8639 106.045 83.0516C109.39 66.2392 117.644 50.7961 129.765 38.6751C141.886 26.5541 157.329 18.2995 174.142 14.9554C190.954 11.6112 208.38 13.3276 224.217 19.8874C240.054 26.4473 253.59 37.556 263.113 51.8088C272.637 66.0616 277.72 82.8183 277.72 99.96C277.72 111.342 275.478 122.612 271.123 133.127C266.767 143.643 260.383 153.197 252.335 161.245C244.287 169.293 234.732 175.677 224.217 180.033C213.702 184.388 202.432 186.63 191.05 186.63Z" fill="black"/>
<path d="M134.191 131.08C134.204 129.546 133.857 128.031 133.178 126.655C132.499 125.28 131.507 124.082 130.281 123.16C130.266 120.449 129.293 117.83 127.535 115.766C125.777 113.702 123.345 112.326 120.671 111.88C120.258 109.909 119.333 108.082 117.991 106.581C116.648 105.08 114.934 103.959 113.021 103.33C112.556 103.185 112.082 103.074 111.601 103H111.461H111.211H111.011H110.791H110.521H109.911C107.254 103.061 104.704 104.061 102.713 105.821C100.722 107.582 99.4174 109.99 99.031 112.62C95.521 111.81 92.311 112.86 91.721 115.08C91.5731 115.67 91.608 116.29 91.821 116.86C92.421 118.58 94.371 120.23 96.981 121.04L97.321 121.14L97.831 121.27H97.941C97.3836 122.455 97.0967 123.75 97.101 125.06C97.0928 126.668 97.5281 128.246 98.3591 129.622C99.1901 130.998 100.384 132.119 101.811 132.86L101.581 133C101.256 133.296 100.997 133.657 100.821 134.06C100.19 135.176 99.696 136.365 99.351 137.6C99.101 138.66 99.061 139.76 98.751 140.81C98.171 142.74 96.6909 144.37 96.5209 146.38C96.4409 147.28 96.591 148.38 95.951 148.96C95.7935 149.097 95.6226 149.217 95.441 149.32C94.9977 149.633 94.6205 150.031 94.331 150.49C94.1392 150.906 93.8751 151.286 93.5509 151.61C92.9709 152.04 92.0209 152 91.7409 152.67C91.4609 153.34 92.1909 154.13 92.0209 154.86C91.8509 155.59 91.2309 155.73 90.781 156.14C90.2575 156.703 89.8889 157.392 89.7109 158.14C88.7647 158.321 87.7904 158.291 86.8571 158.052C85.9238 157.813 85.0545 157.372 84.311 156.76C84.5659 157.406 84.7536 158.076 84.8709 158.76C84.0007 158.096 83.0137 157.601 81.9609 157.3C80.7764 156.761 79.7198 155.977 78.861 155L80.5209 154.77L73.191 143.58L71.0209 143.13L72.9609 146.86C72.7988 146.934 72.6553 147.043 72.5411 147.18C72.4269 147.317 72.3448 147.477 72.3009 147.65C72.1977 148.065 72.174 148.496 72.231 148.92C72.3305 149.93 72.4975 150.932 72.731 151.92L73.291 154.54C73.341 154.78 73.401 155.03 73.471 155.27C72.7395 155.234 72.0069 155.315 71.3009 155.51C69.8473 154.969 68.3325 154.61 66.791 154.44C66.461 154.373 66.1209 154.373 65.791 154.44C65.4174 154.617 65.0916 154.881 64.841 155.21C63.5784 156.675 62.4568 158.255 61.4909 159.93C57.4909 166.79 52.281 172.78 47.351 178.98C43.951 180.36 40.521 181.67 37.091 182.98L29.7109 185.8C28.272 186.453 26.7111 186.794 25.131 186.8C24.431 186.8 23.561 186.65 23.131 187.25C22.938 187.562 22.7867 187.898 22.6809 188.25L21.921 188.33C21.571 187.129 20.9674 186.018 20.1509 185.07C19.9709 185.101 19.8011 185.175 19.6565 185.287C19.5118 185.398 19.3966 185.544 19.321 185.71C19.141 186.04 19.031 186.4 18.821 186.71C18.431 187.29 17.741 187.57 17.251 188.06C16.761 188.55 16.451 189.31 15.911 189.81C15.1747 190.355 14.31 190.699 13.4009 190.81C12.0306 191.13 10.709 191.631 9.47095 192.3C9.01785 192.584 8.53063 192.809 8.02094 192.97C7.45766 193.08 6.88055 193.1 6.31095 193.03L2.41096 192.74C2.06068 192.696 1.70552 192.713 1.36097 192.79C0.969415 192.949 0.638474 193.229 0.415686 193.588C0.192898 193.948 0.089705 194.368 0.120948 194.79C0.171262 195.214 0.307117 195.623 0.52027 195.992C0.733423 196.362 1.01945 196.684 1.36097 196.94C2.03559 197.438 2.78488 197.826 3.58097 198.09C6.956 199.404 10.4347 200.434 13.981 201.17V201.96C16.4622 203.211 19.2023 203.862 21.981 203.86C22.187 203.874 22.3932 203.836 22.581 203.75C22.8364 203.559 23.014 203.282 23.081 202.97C23.9104 200.49 24.4343 197.917 24.641 195.31C25.129 195.277 25.6069 195.155 26.0509 194.95C27.3909 194.58 28.7309 195.5 30.1209 195.65C31.8309 195.84 33.411 194.84 35.031 194.23L35.731 194C35.2697 194.593 34.7239 195.115 34.111 195.55C33.441 196.03 32.691 196.39 32.041 196.89C31.4906 197.388 30.9021 197.843 30.281 198.25C29.8428 198.453 29.3918 198.626 28.9309 198.77C28.2492 199.023 27.6011 199.359 27.001 199.77C26.4691 200.087 26.0201 200.526 25.691 201.05C25.5266 201.318 25.4307 201.622 25.4115 201.936C25.3923 202.25 25.4505 202.564 25.581 202.85C25.7193 203.083 25.9059 203.285 26.1285 203.44C26.351 203.595 26.6041 203.701 26.8709 203.75C27.3979 203.83 27.934 203.83 28.4609 203.75C30.5809 203.59 32.6909 203.4 34.8009 203.21C35.6929 203.153 36.5791 203.026 37.451 202.83C37.911 202.72 38.371 202.57 38.831 202.44C39.6204 202.241 40.4277 202.12 41.2409 202.08C41.4766 202.062 41.7136 202.085 41.941 202.15C42.431 202.31 42.781 202.81 43.281 202.91C43.6199 202.953 43.9642 202.908 44.281 202.78C45.8222 202.448 47.3943 202.28 48.971 202.28C49.661 202.28 50.471 202.11 50.791 201.47C51.111 200.83 50.5309 199.8 50.2709 198.95C50.1376 198.406 50.0638 197.85 50.0509 197.29C49.9303 195.913 49.536 194.573 48.891 193.35C48.5432 192.78 48.2518 192.177 48.0209 191.55C51.0452 190.401 53.9383 188.933 56.6509 187.17C58.137 186.094 59.8031 185.291 61.571 184.8C63.6589 184.551 65.7761 184.798 67.751 185.52C72.5589 186.913 77.2889 188.562 81.921 190.46C84.131 191.37 86.331 192.33 88.611 193.02C89.276 193.912 90.0795 194.692 90.9909 195.33C92.5658 196.216 94.3345 196.7 96.141 196.74C98.551 196.96 100.971 197.05 103.391 197.01C105.243 197.09 107.09 196.748 108.791 196.01C109.197 195.807 109.576 195.555 109.921 195.26C110.574 195.315 111.231 195.227 111.846 195C112.462 194.774 113.02 194.415 113.481 193.95C114.792 192.827 115.736 191.336 116.191 189.67C116.781 187.39 116.331 184.67 117.731 182.85C118.101 182.35 118.591 181.95 118.961 181.45C119.409 180.765 119.633 179.958 119.601 179.14C119.617 179.108 119.638 179.078 119.661 179.05C119.968 178.315 120.17 177.541 120.261 176.75C120.433 176.128 120.65 175.52 120.911 174.93C121.622 173.166 122.243 171.367 122.771 169.54C123.132 168.325 123.419 167.089 123.631 165.84C123.781 164.84 123.871 163.84 123.951 162.84C124.057 161.264 124.363 159.708 124.861 158.21C126.113 154.643 126.821 150.908 126.961 147.13V146.91C128.803 146.698 130.5 145.805 131.718 144.406C132.935 143.008 133.585 141.204 133.541 139.35C133.541 138.237 133.306 137.136 132.851 136.12C133.736 134.588 134.198 132.849 134.191 131.08ZM98.411 174.55C98.521 174.94 98.651 175.32 98.781 175.7C98.191 175.13 97.6209 174.54 97.031 173.96C97.261 174.04 97.501 174.11 97.721 174.2C97.9521 174.294 98.1732 174.412 98.381 174.55H98.411ZM95.581 172.63C92.121 169.63 88.121 167.3 84.581 164.39C86.511 165.34 88.391 166.45 90.251 167.51C92.4576 168.77 94.6943 169.98 96.9609 171.14C96.5887 171.721 96.1104 172.226 95.5509 172.63H95.581ZM97.0509 165.07L97.221 164.9C97.221 165.33 97.221 165.72 97.221 166.09L96.291 165.77C96.5483 165.552 96.7921 165.318 97.0209 165.07H97.0509ZM66.6209 173.17C68.0403 171.563 69.2747 169.802 70.3009 167.92C71.6709 170.31 73.901 172.04 75.791 174.05C72.741 173.66 69.6809 173.33 66.6209 173.17Z" fill="url(#paint0_linear)"/>
<path d="M71.541 144.05L73.721 144.49L81.151 155.48L77.881 155.92L71.541 144.05Z" fill="#2F2E41"/>
<path d="M18.6809 188.63C19.2723 190.569 20.0008 192.464 20.8609 194.3C23.3229 193.78 25.7454 193.088 28.1109 192.23C27.6445 191.536 27.1404 190.869 26.6009 190.23C26.014 189.592 25.3203 189.06 24.5509 188.66C23.7313 188.475 22.8805 188.475 22.0609 188.66C20.9409 188.63 19.8109 188.65 18.6809 188.63Z" fill="#FBBEBE"/>
<path d="M24.5609 191.56C23.9695 191.295 23.442 190.906 23.0142 190.42C22.5863 189.933 22.268 189.36 22.0809 188.74C21.7 187.494 21.0554 186.345 20.1909 185.37C20.0088 185.395 19.8362 185.466 19.6892 185.576C19.5422 185.686 19.4258 185.832 19.3509 186C19.1709 186.32 19.0609 186.68 18.8609 187C18.4609 187.57 17.7609 187.85 17.2609 188.33C16.7609 188.81 16.4609 189.56 15.9209 190.05C15.1785 190.597 14.3066 190.942 13.3909 191.05C11.9993 191.364 10.6547 191.858 9.3909 192.52C8.92836 192.797 8.43499 193.018 7.9209 193.18C7.35073 193.265 6.77107 193.265 6.2009 193.18L2.2609 192.9C1.92979 192.846 1.592 192.846 1.26089 192.9C0.858729 193.045 0.51695 193.322 0.290314 193.684C0.0636773 194.047 -0.0347061 194.475 0.010895 194.9C0.0575098 195.322 0.193008 195.729 0.408478 196.094C0.623948 196.46 0.91449 196.775 1.26089 197.02C1.94536 197.512 2.70068 197.896 3.50089 198.16C6.93132 199.452 10.4636 200.456 14.0609 201.16V201.94C16.5663 203.17 19.32 203.809 22.1109 203.81C22.3159 203.823 22.521 203.788 22.7109 203.71C22.9663 203.519 23.1439 203.242 23.2109 202.93C24.1588 200.168 24.7142 197.287 24.8609 194.37C24.9251 193.629 24.8677 192.883 24.6909 192.16C24.4709 191.45 25.2109 191.75 24.5309 191.47" fill="#2F2E41"/>
<path d="M100.121 176.71C88.441 177.41 76.901 173.99 65.201 173.63C63.7488 173.534 62.2902 173.625 60.861 173.9C59.3728 174.304 57.9315 174.863 56.561 175.57C50.291 178.49 43.801 180.91 37.321 183.32L29.871 186.09C28.422 186.745 26.851 187.085 25.261 187.09C24.551 187.09 23.681 186.94 23.261 187.53C22.051 189.33 22.621 191.96 23.421 193.98C23.681 194.63 24.121 195.34 24.821 195.41C25.3122 195.377 25.7933 195.255 26.241 195.05C27.591 194.69 28.941 195.6 30.341 195.75C32.061 195.93 33.661 194.95 35.291 194.35C37.991 193.35 40.931 193.35 43.771 192.91C48.521 192.12 52.931 189.91 57.051 187.4C58.5491 186.332 60.2252 185.54 62.001 185.06C64.1046 184.812 66.2372 185.055 68.231 185.77C73.0766 187.137 77.8465 188.76 82.521 190.63C84.9511 191.688 87.4423 192.599 89.981 193.36C95.5226 194.81 101.382 194.46 106.711 192.36C108.581 191.62 110.611 190.36 110.711 188.3C110.781 187.15 109.881 186.14 109.291 185.15C108.911 184.52 108.521 183.89 108.111 183.28C106.111 180.38 103.671 176.5 100.121 176.71Z" fill="#2F2E41"/>
<path opacity="0.1" d="M100.121 176.71C88.441 177.41 76.901 173.99 65.201 173.63C63.7488 173.534 62.2902 173.625 60.861 173.9C59.3728 174.304 57.9315 174.863 56.561 175.57C50.291 178.49 43.801 180.91 37.321 183.32L29.871 186.09C28.422 186.745 26.851 187.085 25.261 187.09C24.551 187.09 23.681 186.94 23.261 187.53C22.051 189.33 22.621 191.96 23.421 193.98C23.681 194.63 24.121 195.34 24.821 195.41C25.3122 195.377 25.7933 195.255 26.241 195.05C27.591 194.69 28.941 195.6 30.341 195.75C32.061 195.93 33.661 194.95 35.291 194.35C37.991 193.35 40.931 193.35 43.771 192.91C48.521 192.12 52.931 189.91 57.051 187.4C58.5491 186.332 60.2252 185.54 62.001 185.06C64.1046 184.812 66.2372 185.055 68.231 185.77C73.0766 187.137 77.8465 188.76 82.521 190.63C84.9511 191.688 87.4423 192.599 89.981 193.36C95.5226 194.81 101.382 194.46 106.711 192.36C108.581 191.62 110.611 190.36 110.711 188.3C110.781 187.15 109.881 186.14 109.291 185.15C108.911 184.52 108.521 183.89 108.111 183.28C106.111 180.38 103.671 176.5 100.121 176.71Z" fill="black"/>
<path d="M41.1108 189.17C42.9375 189.79 44.7808 190.363 46.6408 190.89C47.6408 189.18 49.6408 187.99 50.0708 186.03C50.0958 185.945 50.0958 185.855 50.0708 185.77C50.0215 185.687 49.9484 185.621 49.8608 185.58C48.5238 184.846 47.0427 184.413 45.5208 184.31C44.3208 184.24 43.7708 185.49 43.2308 186.37C43.0208 186.76 41.6008 189.36 41.1108 189.17Z" fill="#FBBEBE"/>
<path d="M43.6709 187.95C43.1244 187.858 42.603 187.652 42.14 187.348C41.6769 187.043 41.2822 186.645 40.9809 186.18C40.7309 185.73 40.4509 185.12 39.9309 185.18C39.4109 185.24 39.2409 185.78 39.1309 186.25C38.7848 188.022 38.2794 189.759 37.6209 191.44C36.9611 193.13 35.8424 194.602 34.3909 195.69C33.7109 196.16 32.9609 196.51 32.2909 197.01C31.7362 197.502 31.1445 197.95 30.5209 198.35C30.0796 198.548 29.6252 198.715 29.1609 198.85C28.4777 199.107 27.8267 199.443 27.2209 199.85C26.6815 200.16 26.2252 200.596 25.8909 201.12C25.7257 201.383 25.6298 201.683 25.6123 201.992C25.5948 202.302 25.6563 202.611 25.7909 202.89C25.9308 203.12 26.1183 203.318 26.3408 203.47C26.5633 203.621 26.8156 203.724 27.0809 203.77C27.6146 203.85 28.1572 203.85 28.6909 203.77C30.8209 203.62 32.9509 203.43 35.0809 203.24C35.9788 203.182 36.8711 203.058 37.7509 202.87L39.1409 202.49C39.9351 202.28 40.7501 202.16 41.5709 202.13C41.8099 202.108 42.0509 202.132 42.2809 202.2C42.7709 202.36 43.1209 202.85 43.6309 202.95C43.9698 202.983 44.3116 202.938 44.6309 202.82C46.1854 202.487 47.7712 202.323 49.3609 202.33C50.0609 202.33 50.8809 202.15 51.2009 201.53C51.6009 200.75 50.9409 199.88 50.6709 199.04C50.5418 198.506 50.4681 197.96 50.4509 197.41C50.3315 196.05 49.9332 194.729 49.2809 193.53C48.7409 192.53 48.0009 191.43 48.3809 190.37C48.57 190.033 48.6922 189.663 48.7409 189.28C48.5909 187.56 44.6509 188.17 43.6709 187.95Z" fill="#2F2E41"/>
<path d="M82.6108 157.97C80.5381 157.062 78.8771 155.415 77.9508 153.35C77.7608 152.91 77.6008 152.44 77.4108 152C76.8007 150.51 75.8484 149.184 74.6308 148.13C74.5024 147.994 74.3473 147.885 74.1754 147.811C74.0034 147.738 73.8181 147.7 73.6308 147.7C73.445 147.756 73.2775 147.861 73.1457 148.003C73.0138 148.145 72.9224 148.321 72.8808 148.51C72.7691 148.917 72.7419 149.342 72.8008 149.76C72.9025 150.743 73.0695 151.719 73.3008 152.68L73.8708 155.26C73.9463 155.655 74.0637 156.04 74.2208 156.41C74.4646 156.842 74.7868 157.226 75.1708 157.54C75.6908 158.02 76.2208 158.48 76.7508 158.94C77.0573 159.207 77.3927 159.438 77.7508 159.63C78.3094 159.897 78.9069 160.072 79.5208 160.15C81.9069 160.461 84.1838 161.338 86.1608 162.71C86.1608 162.71 86.1608 160.98 86.1608 160.79C86.1355 160.287 85.9615 159.804 85.6608 159.4C84.7448 158.733 83.7095 158.248 82.6108 157.97Z" fill="#FBBEBE"/>
<path opacity="0.1" d="M82.6108 157.97C80.5381 157.062 78.8771 155.415 77.9508 153.35C77.7608 152.91 77.6008 152.44 77.4108 152C76.8007 150.51 75.8484 149.184 74.6308 148.13C74.5024 147.994 74.3473 147.885 74.1754 147.811C74.0034 147.738 73.8181 147.7 73.6308 147.7C73.445 147.756 73.2775 147.861 73.1457 148.003C73.0138 148.145 72.9224 148.321 72.8808 148.51C72.7691 148.917 72.7419 149.342 72.8008 149.76C72.9025 150.743 73.0695 151.719 73.3008 152.68L73.8708 155.26C73.9463 155.655 74.0637 156.04 74.2208 156.41C74.4646 156.842 74.7868 157.226 75.1708 157.54C75.6908 158.02 76.2208 158.48 76.7508 158.94C77.0573 159.207 77.3927 159.438 77.7508 159.63C78.3094 159.897 78.9069 160.072 79.5208 160.15C81.9069 160.461 84.1838 161.338 86.1608 162.71C86.1608 162.71 86.1608 160.98 86.1608 160.79C86.1355 160.287 85.9615 159.804 85.6608 159.4C84.7448 158.733 83.7095 158.248 82.6108 157.97Z" fill="black"/>
<path d="M106.391 138.23C107.959 138.23 109.231 136.95 109.231 135.37C109.231 133.79 107.959 132.51 106.391 132.51C104.822 132.51 103.551 133.79 103.551 135.37C103.551 136.95 104.822 138.23 106.391 138.23Z" fill="#2F2E41"/>
<path d="M104.631 133.65C103.871 133.468 103.07 133.582 102.391 133.97C102.063 134.262 101.801 134.62 101.621 135.02C100.985 136.114 100.488 137.283 100.141 138.5C99.891 139.5 99.8509 140.63 99.5309 141.66C98.9509 143.56 97.461 145.17 97.291 147.15C97.211 148.04 97.3609 149.08 96.7109 149.68C96.5518 149.818 96.3812 149.941 96.201 150.05C95.7508 150.35 95.3691 150.742 95.081 151.2C94.8852 151.608 94.6175 151.977 94.291 152.29C93.711 152.72 92.7509 152.68 92.4709 153.29C92.1909 153.9 92.9209 154.73 92.7509 155.45C92.5809 156.17 91.9509 156.31 91.5009 156.71C90.9708 157.27 90.5982 157.96 90.421 158.71C89.4706 158.893 88.4917 158.867 87.5523 158.634C86.6129 158.401 85.7355 157.966 84.981 157.36C85.6408 159.364 85.9289 161.472 85.831 163.58C85.8807 163.917 85.8621 164.261 85.7762 164.591C85.6903 164.921 85.5389 165.23 85.331 165.5C87.5868 165.668 89.8208 166.056 92.0009 166.66C92.9454 166.975 93.9665 166.975 94.9109 166.66C95.4167 166.389 95.8704 166.03 96.2509 165.6C97.4509 164.38 98.7109 163.05 99.0009 161.36C99.0728 160.405 99.0894 159.447 99.0509 158.49C99.165 157.303 99.4098 156.133 99.7809 155C100.414 152.649 100.839 150.246 101.051 147.82C101.181 146.32 102.481 145.12 103.161 143.82C104.441 141.29 105.761 138.66 105.851 135.82C105.891 134.9 105.571 133.75 104.631 133.65Z" fill="#2F2E41"/>
<path opacity="0.1" d="M104.631 133.65C103.871 133.468 103.07 133.582 102.391 133.97C102.063 134.262 101.801 134.62 101.621 135.02C100.985 136.114 100.488 137.283 100.141 138.5C99.891 139.5 99.8509 140.63 99.5309 141.66C98.9509 143.56 97.461 145.17 97.291 147.15C97.211 148.04 97.3609 149.08 96.7109 149.68C96.5518 149.818 96.3812 149.941 96.201 150.05C95.7508 150.35 95.3691 150.742 95.081 151.2C94.8852 151.608 94.6175 151.977 94.291 152.29C93.711 152.72 92.7509 152.68 92.4709 153.29C92.1909 153.9 92.9209 154.73 92.7509 155.45C92.5809 156.17 91.9509 156.31 91.5009 156.71C90.9708 157.27 90.5982 157.96 90.421 158.71C89.4706 158.893 88.4917 158.867 87.5523 158.634C86.6129 158.401 85.7355 157.966 84.981 157.36C85.6408 159.364 85.9289 161.472 85.831 163.58C85.8807 163.917 85.8621 164.261 85.7762 164.591C85.6903 164.921 85.5389 165.23 85.331 165.5C87.5868 165.668 89.8208 166.056 92.0009 166.66C92.9454 166.975 93.9665 166.975 94.9109 166.66C95.4167 166.389 95.8704 166.03 96.2509 165.6C97.4509 164.38 98.7109 163.05 99.0009 161.36C99.0728 160.405 99.0894 159.447 99.0509 158.49C99.165 157.303 99.4098 156.133 99.7809 155C100.414 152.649 100.839 150.246 101.051 147.82C101.181 146.32 102.481 145.12 103.161 143.82C104.441 141.29 105.761 138.66 105.851 135.82C105.891 134.9 105.571 133.75 104.631 133.65Z" fill="black"/>
<path d="M101.971 179.17C99.541 178.01 97.7611 175.86 95.7911 174.01C92.0411 170.48 87.451 168.01 83.501 164.68C80.8811 162.49 78.5011 159.94 75.6711 158.1C73.1361 156.493 70.2654 155.49 67.281 155.17C66.952 155.094 66.6101 155.094 66.281 155.17C65.9031 155.331 65.5751 155.59 65.3311 155.92C64.0557 157.359 62.9206 158.916 61.9411 160.57C56.9411 169.07 49.8311 176.21 43.9411 184.11C43.8058 184.274 43.7069 184.465 43.651 184.67C43.6262 184.976 43.7035 185.282 43.871 185.54L45.0711 187.88C45.7411 189.2 46.8211 190.73 48.2611 190.47C48.9095 190.282 49.4896 189.911 49.931 189.4L55.311 184.25L60.9511 178.86C64.2511 175.71 67.611 172.48 69.771 168.44C71.451 171.36 74.4411 173.27 76.4811 175.94C77.2611 176.94 77.9011 178.07 78.6011 179.15C79.7111 180.87 80.981 182.49 82.241 184.15L88.711 192.4C89.531 193.565 90.5459 194.58 91.711 195.4C93.3063 196.268 95.0853 196.745 96.901 196.79C99.3314 197.007 101.771 197.093 104.211 197.05C106.079 197.125 107.941 196.784 109.661 196.05C110.518 195.673 111.251 195.06 111.773 194.283C112.295 193.506 112.586 192.596 112.611 191.66C112.511 190.691 112.193 189.758 111.681 188.93C109.341 184.76 106.321 181.24 101.971 179.17Z" fill="#2F2E41"/>
<path d="M108.141 139.55C109.35 139.55 110.331 138.565 110.331 137.35C110.331 136.135 109.35 135.15 108.141 135.15C106.931 135.15 105.951 136.135 105.951 137.35C105.951 138.565 106.931 139.55 108.141 139.55Z" fill="#E8E8F0"/>
<path d="M107.661 135.7C108.149 136.682 108.236 137.816 107.901 138.86C107.556 139.886 107.082 140.863 106.491 141.77C105.983 142.704 105.369 143.577 104.661 144.37C108.041 144.53 111.311 143.21 114.281 141.61C116.681 140.32 119.071 138.73 120.351 136.32C119.969 136.411 119.572 136.421 119.186 136.348C118.8 136.276 118.434 136.123 118.111 135.9C117.466 135.457 116.89 134.921 116.401 134.31L114.711 132.41C114.328 131.992 113.992 131.533 113.711 131.04C113.339 130.366 113.183 129.595 113.261 128.83C112.587 129.533 111.835 130.157 111.021 130.69C109.811 131.48 108.481 132.05 107.261 132.83C106.841 133.11 105.881 133.55 106.131 134.11C106.381 134.67 107.321 135.1 107.661 135.7Z" fill="#FBBEBE"/>
<path opacity="0.1" d="M107.661 135.7C108.149 136.682 108.236 137.816 107.901 138.86C107.556 139.886 107.082 140.863 106.491 141.77C105.983 142.704 105.369 143.577 104.661 144.37C108.041 144.53 111.311 143.21 114.281 141.61C116.681 140.32 119.071 138.73 120.351 136.32C119.969 136.411 119.572 136.421 119.186 136.348C118.8 136.276 118.434 136.123 118.111 135.9C117.466 135.457 116.89 134.921 116.401 134.31L114.711 132.41C114.328 131.992 113.992 131.533 113.711 131.04C113.339 130.366 113.183 129.595 113.261 128.83C112.587 129.533 111.835 130.157 111.021 130.69C109.811 131.48 108.481 132.05 107.261 132.83C106.841 133.11 105.881 133.55 106.131 134.11C106.381 134.67 107.321 135.1 107.661 135.7Z" fill="black"/>
<path d="M107.701 136.03C107.359 136.512 107.175 137.089 107.175 137.68C107.175 138.271 107.359 138.848 107.701 139.33C107.801 139.45 108.161 140.2 108.311 140.21C108.384 140.204 108.456 140.183 108.521 140.149C108.586 140.114 108.644 140.067 108.691 140.01C109.46 139.208 110.175 138.356 110.831 137.46C111.501 136.566 112.463 135.936 113.551 135.68C114.898 135.629 116.222 136.042 117.301 136.85C117.802 137.079 118.244 137.421 118.591 137.85C118.832 138.291 118.975 138.779 119.011 139.28C119.338 142.298 119.465 145.335 119.391 148.37C119.448 150.562 119.304 152.754 118.961 154.92C118.741 156.03 118.421 157.12 118.271 158.25C118.153 159.246 118.107 160.248 118.131 161.25V165.43C118.104 166.197 118.158 166.964 118.291 167.72C118.491 168.63 118.921 169.48 119.211 170.37C119.51 171.392 119.714 172.44 119.821 173.5L120.391 177.82C120.571 179.18 120.711 180.67 119.881 181.82C119.511 182.31 119.021 182.71 118.641 183.2C117.231 185.04 117.641 187.67 117.091 189.92C116.628 191.567 115.671 193.033 114.351 194.12C113.88 194.586 113.313 194.943 112.689 195.166C112.065 195.389 111.4 195.472 110.741 195.41C108.981 195.08 107.931 193.25 107.451 191.52C106.971 189.79 106.801 187.91 105.761 186.45C104.806 185.345 103.678 184.403 102.421 183.66C101.149 182.906 100.214 181.693 99.8109 180.27C99.7009 179.64 99.8109 178.99 99.7009 178.35C99.6069 177.545 99.2984 176.779 98.8076 176.134C98.3169 175.488 97.6618 174.986 96.9109 174.68C96.0109 174.33 94.9109 174.2 94.3909 173.38C95.6783 172.574 96.6168 171.314 97.0208 169.85C97.4188 168.396 97.6338 166.898 97.6609 165.39L97.9608 160.39C98.1008 158.14 98.1608 155.92 99.1508 153.9C99.5908 153 100.151 152.15 100.601 151.26C101.211 150.009 101.729 148.716 102.151 147.39C102.871 145.33 103.591 143.27 104.231 141.19C104.48 140.18 104.864 139.208 105.371 138.3C105.911 137.36 106.691 136.23 107.701 136.03Z" fill="#E8E8F0"/>
<path d="M96.5509 168.67H97.8809L98.1609 166.67C98.1972 166.269 98.2915 165.874 98.4409 165.5C98.6606 165.103 98.9185 164.728 99.2109 164.38C100.511 162.53 100.421 160.08 100.741 157.83C101.321 154.857 102.303 151.977 103.661 149.27L106.241 143.52C106.476 143.05 106.663 142.557 106.801 142.05C106.909 141.49 106.963 140.921 106.961 140.35C106.961 139.46 107.241 136.22 107.271 135.35C107.271 135.02 106.541 135.2 106.391 134.91C106.071 134.27 105.631 136 105.021 136.38C104.448 136.817 104.031 137.427 103.831 138.12C103.271 139.56 102.931 141.12 102.411 142.55C101.959 144.043 101.129 145.393 100.001 146.47C99.4709 146.93 98.8609 147.3 98.3609 147.8C96.7609 149.38 96.6009 151.89 96.5509 154.15C96.5109 155.53 96.2509 168.67 96.5509 168.67Z" fill="#2F2E41"/>
<path d="M115.691 133.64C115.073 133.963 114.537 134.425 114.126 134.988C113.715 135.552 113.44 136.203 113.321 136.89C113.093 138.269 112.689 139.613 112.121 140.89C110.501 143.71 106.371 144.53 105.221 147.58C104.932 148.606 104.777 149.665 104.761 150.73C104.561 152.92 103.841 155.03 103.621 157.21C103.511 158.907 103.551 160.61 103.741 162.3L105.191 179.52C105.469 182.053 105.323 184.615 104.761 187.1C106.247 187.312 107.763 187.061 109.101 186.38C110.451 185.76 111.691 184.91 113.001 184.19C115.241 182.95 117.721 182.08 119.691 180.43C120.044 180.149 120.348 179.811 120.591 179.43C120.892 178.707 121.094 177.947 121.191 177.17C121.361 176.561 121.579 175.966 121.841 175.39C122.563 173.652 123.19 171.876 123.721 170.07C124.082 168.876 124.369 167.66 124.581 166.43C124.741 165.43 124.831 164.43 124.911 163.43C125.015 161.879 125.325 160.35 125.831 158.88C127.086 155.369 127.797 151.686 127.941 147.96C127.98 147.424 127.943 146.886 127.831 146.36C127.611 145.717 127.316 145.103 126.951 144.53C126.351 143.4 125.951 142.16 125.431 141.01C124.013 138.477 121.981 136.342 119.521 134.8C118.361 134.01 117.001 133.17 115.691 133.64Z" fill="#2F2E41"/>
<path d="M85.481 161.74C84.4545 161.201 83.5251 160.495 82.731 159.65C82.371 159.23 82.071 158.76 81.731 158.34C80.8036 157.342 79.5984 156.646 78.271 156.34C76.9579 156.051 75.6151 155.921 74.271 155.95C73.3688 155.89 72.4633 155.998 71.601 156.27C71.1709 156.414 70.7837 156.663 70.4746 156.995C70.1655 157.327 69.9442 157.731 69.831 158.17C69.7947 158.714 69.8999 159.257 70.1365 159.748C70.3731 160.239 70.733 160.66 71.181 160.97C71.9617 161.611 72.8838 162.056 73.871 162.27C74.6748 162.413 75.4861 162.51 76.301 162.56C81.081 163.06 85.351 165.66 89.541 168.03C93.221 170.123 96.9743 172.07 100.801 173.87C100.949 172.726 101.013 171.573 100.991 170.42C100.991 169.56 100.921 168.24 100.111 167.73C98.9589 167.248 97.7588 166.889 96.531 166.66C94.0632 165.854 91.6542 164.878 89.321 163.74C88.001 163.17 86.731 162.47 85.481 161.74Z" fill="#FBBEBE"/>
<path d="M106.391 134.72C111.096 134.72 114.911 130.883 114.911 126.15C114.911 121.417 111.096 117.58 106.391 117.58C101.685 117.58 97.8708 121.417 97.8708 126.15C97.8708 130.883 101.685 134.72 106.391 134.72Z" fill="#FBBEBE"/>
<path d="M118.121 143.35C117.441 144.305 116.886 145.344 116.471 146.44C115.471 148.6 113.771 150.44 112.941 152.73C112.111 155.02 112.101 157.96 110.391 159.83C110.049 160.116 109.79 160.489 109.641 160.91C109.634 161.172 109.607 161.432 109.561 161.69C109.311 162.37 108.201 162.4 107.991 163.1C107.931 163.3 107.991 163.52 107.891 163.72C107.721 164.17 107.121 164.24 106.731 164.51C105.901 165.07 106.071 166.37 105.481 167.18C105.223 167.482 104.891 167.71 104.517 167.842C104.143 167.973 103.741 168.004 103.351 167.93C102.575 167.772 101.829 167.492 101.141 167.1C100.893 166.965 100.622 166.88 100.341 166.85C100.009 166.862 99.6884 166.973 99.4209 167.17C98.6668 167.726 98.062 168.459 97.6607 169.306C97.2593 170.152 97.0739 171.085 97.1209 172.02C97.2357 173.894 97.6826 175.733 98.4409 177.45C98.5252 177.748 98.6718 178.024 98.8709 178.26C99.1687 178.494 99.5291 178.634 99.9066 178.662C100.284 178.691 100.661 178.606 100.991 178.42C101.643 178.033 102.338 177.721 103.061 177.49C104.381 177.25 105.671 178.16 107.011 178.08C107.987 177.936 108.905 177.532 109.671 176.91C111.017 176.107 112.225 175.094 113.251 173.91C113.831 173.14 114.251 172.27 114.771 171.45C115.433 170.453 116.15 169.495 116.921 168.58L121.841 162.58C122.33 162.01 122.771 161.402 123.161 160.76C123.598 159.885 123.934 158.962 124.161 158.01C124.687 156.425 125.022 154.784 125.161 153.12C125.191 151.744 125.071 150.369 124.801 149.02C124.652 147.676 124.315 146.36 123.801 145.11C122.731 142.85 120.131 141.01 118.121 143.35Z" fill="#2F2E41"/>
<path d="M135.241 132.17C135.248 130.651 134.895 129.152 134.21 127.796C133.525 126.44 132.528 125.266 131.301 124.37C131.261 121.671 130.265 119.074 128.491 117.04C126.717 115.006 124.279 113.667 121.611 113.26C121.098 110.701 119.698 108.406 117.657 106.779C115.616 105.152 113.066 104.299 110.457 104.37C107.849 104.44 105.349 105.43 103.399 107.165C101.449 108.899 100.175 111.267 99.8009 113.85C96.2609 113.05 93.0209 114.09 92.4309 116.27C91.8409 118.45 94.3409 121.27 98.0709 122.27C99.2475 122.599 100.472 122.721 101.691 122.63C102.559 123.91 103.686 124.993 104.998 125.811C106.311 126.63 107.78 127.164 109.311 127.38C109.765 129.442 110.783 131.336 112.253 132.851C113.722 134.367 115.584 135.443 117.631 135.96C118.201 137.327 119.081 138.542 120.201 139.51C120.201 139.78 120.201 140.06 120.201 140.34C120.201 141.287 120.387 142.224 120.75 143.099C121.112 143.974 121.643 144.769 122.313 145.438C122.982 146.108 123.777 146.639 124.652 147.001C125.527 147.364 126.464 147.55 127.411 147.55C128.358 147.55 129.295 147.364 130.17 147.001C131.045 146.639 131.84 146.108 132.509 145.438C133.179 144.769 133.71 143.974 134.072 143.099C134.434 142.224 134.621 141.287 134.621 140.34C134.621 139.24 134.386 138.152 133.931 137.15C134.811 135.639 135.264 133.918 135.241 132.17Z" fill="#F86D70"/>
<path opacity="0.1" d="M94.8309 116.73C95.4209 114.55 98.6609 113.51 102.201 114.31C102.621 111.686 103.955 109.295 105.969 107.56C107.982 105.825 110.544 104.858 113.201 104.83H113.931C112.913 104.52 111.855 104.362 110.791 104.36C108.134 104.388 105.572 105.355 103.559 107.09C101.545 108.825 100.211 111.216 99.7909 113.84C96.2509 113.04 93.0109 114.08 92.4209 116.26C91.8309 118.44 94.3309 121.26 98.0609 122.26C98.7603 122.454 99.4771 122.578 100.201 122.63C96.6309 121.56 94.2409 118.96 94.8309 116.73Z" fill="black"/>
<path opacity="0.1" d="M122.561 140.76C122.546 140.487 122.546 140.213 122.561 139.94C121.435 138.977 120.554 137.76 119.991 136.39C117.941 135.875 116.077 134.799 114.607 133.281C113.136 131.763 112.12 129.865 111.671 127.8C110.138 127.588 108.667 127.057 107.353 126.24C106.038 125.424 104.91 124.34 104.041 123.06C103.331 123.119 102.616 123.099 101.911 123C102.787 124.178 103.887 125.17 105.149 125.92C106.41 126.67 107.808 127.163 109.261 127.37C109.715 129.431 110.733 131.326 112.203 132.841C113.672 134.357 115.534 135.433 117.581 135.95C118.151 137.317 119.031 138.532 120.151 139.5C120.151 139.77 120.151 140.05 120.151 140.33C120.119 142.268 120.855 144.141 122.198 145.538C123.541 146.936 125.383 147.745 127.321 147.79C125.907 147.241 124.694 146.274 123.843 145.018C122.993 143.762 122.546 142.277 122.561 140.76Z" fill="black"/>
<path d="M110.298 129.296C110.874 128.858 110.867 127.88 110.283 127.11C109.698 126.34 108.757 126.071 108.181 126.509C107.605 126.947 107.612 127.925 108.196 128.695C108.781 129.464 109.722 129.734 110.298 129.296Z" fill="#FBBEBE"/>
<path d="M191.05 857.95C246.256 857.95 291.01 813.196 291.01 757.99C291.01 702.784 246.256 658.03 191.05 658.03C135.843 658.03 91.0898 702.784 91.0898 757.99C91.0898 813.196 135.843 857.95 191.05 857.95Z" fill="#3F3D56"/>
<path d="M191.05 710.16L151.2 802.1L154.92 805.82L191.06 789.88L227.2 805.82L230.92 802.1L191.05 710.16Z" fill="#E1C158"/>
<path opacity="0.1" d="M191.05 658C171.27 657.99 151.931 663.847 135.479 674.829C119.028 685.811 106.203 701.425 98.6264 719.697C91.05 737.969 89.0626 758.077 92.9154 777.478C96.7683 796.88 106.288 814.703 120.272 828.693C134.255 842.683 152.073 852.212 171.473 856.075C190.872 859.937 210.981 857.96 229.257 850.393C247.532 842.825 263.153 830.008 274.144 813.562C285.134 797.116 291 777.78 291 758C291 731.487 280.471 706.059 261.728 687.307C242.986 668.555 217.563 658.013 191.05 658ZM191.05 844.62C173.906 844.62 157.147 839.536 142.894 830.01C128.64 820.484 117.531 806.945 110.973 791.106C104.414 775.266 102.701 757.837 106.049 741.023C109.397 724.209 117.657 708.766 129.783 696.647C141.909 684.528 157.357 676.278 174.172 672.939C190.988 669.601 208.416 671.324 224.252 677.892C240.088 684.459 253.62 695.576 263.138 709.835C272.655 724.095 277.73 740.856 277.72 758C277.717 780.985 268.585 803.027 252.331 819.279C236.078 835.53 214.035 844.66 191.05 844.66V844.62Z" fill="black"/>
<path d="M106.843 733.42C105.937 731.207 105.007 729 104.053 726.8C103.268 724.653 102.114 722.66 100.643 720.91C100.085 720.28 99.4044 719.77 98.6434 719.41C97.806 719.101 96.9253 718.926 96.0334 718.89C94.6737 718.719 93.3004 718.682 91.9334 718.78C91.4034 718.62 90.8034 718.41 90.2134 718.17C93.1723 717.393 95.8033 715.685 97.7188 713.3C99.6344 710.915 100.733 707.977 100.853 704.92C100.853 704.72 100.853 704.51 100.853 704.31C100.861 702.439 100.501 700.584 99.7917 698.852C99.0829 697.12 98.0398 695.545 96.7221 694.216C95.4045 692.887 93.838 691.831 92.1121 691.108C90.3862 690.384 88.5348 690.008 86.6634 690C84.0292 689.995 81.4469 690.733 79.2134 692.13C76.264 691.461 73.1749 691.812 70.4505 693.125C67.7261 694.438 65.5274 696.636 64.2134 699.36C62.5569 700.945 61.2481 702.856 60.3701 704.974C59.4922 707.091 59.0642 709.368 59.1134 711.66C59.1134 711.87 59.1134 712.09 59.1134 712.29C59.3734 720.06 64.3934 726.29 70.7334 726.92C70.0558 727.225 69.4338 727.64 68.8934 728.15C66.9534 730.02 66.6334 732.99 66.4234 735.69L66.2734 737.69L62.9134 738.89C62.8065 738.928 62.7121 738.995 62.6405 739.083C62.5689 739.171 62.5229 739.277 62.5075 739.389C62.492 739.502 62.5077 739.616 62.5528 739.721C62.598 739.825 62.6708 739.914 62.7634 739.98L65.9734 742.27C65.9734 742.46 65.9734 742.65 65.9734 742.84C65.9734 743.03 65.9734 743.27 66.0334 743.49C65.4851 743.973 65.06 744.58 64.7934 745.26C64.4808 746.31 64.3822 747.412 64.5034 748.5L64.6234 751.29C64.6077 753.39 64.8939 755.481 65.4734 757.5C65.8934 758.74 67.7134 761.73 69.0234 761.75C67.8134 767.25 67.4934 778.85 67.4934 778.85C67.3434 779 67.7634 779.14 68.4934 779.26C69.2134 784.78 71.5634 800.26 75.7334 807.07C76.3898 809.29 76.914 811.548 77.3034 813.83C77.3034 813.83 78.4934 828.54 80.0634 832.91C81.4034 836.63 82.4634 845.81 82.7534 848.47C82.4817 848.54 82.2343 848.683 82.0385 848.884C81.8428 849.085 81.7061 849.336 81.6434 849.61C80.8534 851.99 75.7334 855.61 75.7334 855.61C74.164 856.394 72.6824 857.343 71.3134 858.44C69.7034 859.89 69.7634 861.2 76.9134 860.38C90.7134 858.79 93.0734 854.38 93.0734 854.38C93.0734 854.38 92.8534 853.64 92.5234 852.68C92.102 851.186 91.4938 849.752 90.7134 848.41C90.5134 848.22 90.3134 848.54 90.0734 849.04C89.0321 842.659 88.7168 836.182 89.1334 829.73C89.1334 829.73 89.5234 822.97 87.5534 818.2C87.1149 815.702 87.1149 813.148 87.5534 810.65C88.3434 807.47 84.4034 791.96 84.4034 791.96L82.1434 780.54C82.4514 780.93 82.6669 781.385 82.7734 781.87L82.8334 782.1L82.8934 782.43C82.916 782.547 82.9715 782.654 83.0534 782.74C84.5934 789.14 88.8134 806.87 88.8134 809.47C88.8134 812.65 92.7534 820.6 92.7534 820.6C92.7534 820.6 94.3234 833.72 97.0834 838.88C99.1834 842.81 99.2334 848.57 99.1334 851.11C99.1334 851.11 98.6634 854.38 97.8734 855.17C97.2455 855.951 96.7427 856.825 96.3834 857.76L96.2934 857.95C96.2934 857.95 95.1134 860.34 95.9034 860.74C98.9083 861.919 102.16 862.328 105.363 861.93C105.363 861.93 106.943 859.93 106.943 859.15C106.911 858.674 106.85 858.2 106.763 857.73C106.473 855.85 105.933 852.89 105.923 852.86C106.253 851.58 104.923 848.02 104.923 848.02L104.523 836.89C105.256 829.354 104.313 821.749 101.763 814.62C101.763 814.62 99.7635 807.47 100.193 805.48C100.623 803.49 99.4034 782.42 99.4034 782.42L99.2834 782.12C99.1767 780.63 99.2169 779.132 99.4034 777.65C99.7934 772.88 98.2234 762.94 97.8234 762.55C97.4972 761.482 97.309 760.376 97.2634 759.26C97.3534 758.43 97.6234 756 97.9934 752.98C101.881 752.847 105.76 752.513 109.613 751.98C109.986 751.98 110.344 751.837 110.613 751.58C110.771 751.34 110.852 751.057 110.843 750.77C111.303 744.78 109.113 738.96 106.843 733.42ZM98.9134 746.03C99.3234 743.18 99.7634 740.42 100.203 738.37L100.263 738.55C101.02 740.611 101.655 742.714 102.163 744.85C101.114 745.33 100.027 745.725 98.9134 746.03Z" fill="url(#paint1_linear)"/>
<path d="M68.2834 778.22C68.2834 778.22 70.6435 799.45 75.7535 807.7C76.41 809.893 76.9342 812.124 77.3234 814.38C77.3234 814.38 78.5034 828.92 80.0734 833.24C81.6434 837.56 82.8234 849.36 82.8234 849.36C82.8234 849.36 88.3235 855.64 90.2935 850.54C89.0562 843.802 88.6599 836.936 89.1135 830.1C89.1135 830.1 89.5035 823.42 87.5435 818.7C87.105 816.233 87.105 813.707 87.5435 811.24C88.3235 808.09 84.3934 792.77 84.3934 792.77L81.2535 777.44L68.2834 778.22Z" fill="#BE6F72"/>
<path d="M93.0433 854.47C93.0433 854.47 90.6834 858.79 76.9334 860.36C69.7934 861.17 69.7433 859.88 71.3533 858.44C72.7179 857.355 74.1927 856.417 75.7534 855.64C75.7534 855.64 80.8633 852.11 81.6433 849.75C82.4233 847.39 85.1834 849.36 85.1834 849.36C89.1134 855.25 89.9034 847.78 90.6834 848.57C91.4663 849.889 92.0747 851.304 92.4933 852.78C92.8233 853.73 93.0433 854.47 93.0433 854.47Z" fill="#FF6F61"/>
<path opacity="0.1" d="M93.0433 854.47C93.0433 854.47 90.6834 858.79 76.9334 860.36C69.7934 861.17 69.7433 859.88 71.3533 858.44C72.4733 859.15 74.7333 859.44 79.2833 857.61C85.8333 854.93 90.5833 853.38 92.4933 852.78C92.8233 853.73 93.0433 854.47 93.0433 854.47Z" fill="black"/>
<path opacity="0.1" d="M89.1135 830.1C89.1135 830.1 89.5035 823.42 87.5435 818.7C87.105 816.233 87.105 813.707 87.5435 811.24C88.3235 808.09 84.3934 792.77 84.3934 792.77L81.2535 777.44L78.5334 777.6L81.6434 792.77C81.6434 792.77 85.5735 808.09 84.7935 811.24C84.355 813.707 84.355 816.233 84.7935 818.7C86.7935 823.42 86.3635 830.1 86.3635 830.1C85.9099 836.936 86.3062 843.802 87.5435 850.54C87.3305 851.18 86.9341 851.743 86.4034 852.16C87.8634 852.82 89.4035 852.79 90.2935 850.54C89.0562 843.802 88.6599 836.936 89.1135 830.1Z" fill="black"/>
<path d="M86.5532 691.96C83.9311 691.955 81.3601 692.686 79.1332 694.07C76.1928 693.391 73.1092 693.728 70.3852 695.027C67.6611 696.325 65.4573 698.508 64.1331 701.22C62.4838 702.78 61.1789 704.668 60.3023 706.762C59.4258 708.856 58.9969 711.11 59.0432 713.38C59.0432 721.74 64.6732 728.51 71.6132 728.51C76.6132 728.51 80.9932 724.95 83.0032 719.8C84.1583 720.106 85.3482 720.261 86.5432 720.26C90.296 720.26 93.8951 718.769 96.5487 716.116C99.2024 713.462 100.693 709.863 100.693 706.11C100.693 702.357 99.2024 698.758 96.5487 696.104C93.8951 693.451 90.296 691.96 86.5432 691.96H86.5532Z" fill="#3F3D56"/>
<path d="M98.1533 780.19L99.3333 783.33C99.3333 783.33 100.513 804.16 100.113 806.13C99.7133 808.1 101.693 815.13 101.693 815.13C104.235 822.168 105.174 829.683 104.443 837.13L104.833 848.13C104.833 848.13 106.403 852.45 105.623 853.24C104.843 854.03 98.9133 852.54 98.9133 852.54C98.9133 852.54 99.7033 844.29 96.9133 839.18C94.1233 834.07 92.5933 821.1 92.5933 821.1C92.5933 821.1 88.6633 813.24 88.6633 810.1C88.6633 806.96 82.3733 781.41 82.3733 781.41L98.1533 780.19Z" fill="#BE6F72"/>
<path d="M67.4934 779.8C67.4934 779.8 67.8934 765.65 69.4934 761.33C70.3075 759.311 70.8945 757.208 71.2434 755.06C71.2434 755.06 95.0334 759.36 97.0034 757.79C97.0034 757.79 97.3934 763.29 97.7934 763.68C98.1934 764.07 99.7934 773.9 99.3634 778.62C98.9334 783.34 99.3634 783.33 99.3634 783.33C99.3634 783.33 83.2434 785.69 82.8534 783.33C82.4634 780.97 81.2833 780.98 81.2833 780.98C81.2833 780.98 66.7134 780.54 67.4934 779.8Z" fill="#3F3D56"/>
<g opacity="0.1">
<path opacity="0.1" d="M80.4632 779.8C80.4632 779.8 70.5232 779.53 67.5232 778.99C67.5232 779.5 67.5232 779.8 67.5232 779.8C66.7432 780.58 81.2832 780.98 81.2832 780.98C81.4811 780.998 81.6691 781.075 81.8232 781.2C81.2932 779.8 80.4632 779.8 80.4632 779.8Z" fill="black"/>
<path opacity="0.1" d="M97.7631 763.68C97.3631 763.29 96.9731 757.79 96.9731 757.79C96.7694 757.917 96.541 757.998 96.3032 758.03C96.4432 759.69 96.7131 762.24 96.9731 762.5C97.2331 762.76 98.9732 772.72 98.5432 777.44C98.1132 782.16 98.5432 782.15 98.5432 782.15C98.5432 782.15 85.7931 784.02 82.7031 782.77C82.7031 782.94 82.7931 783.13 82.8231 783.33C83.2131 785.69 99.3331 783.33 99.3331 783.33C99.3331 783.33 98.9331 783.33 99.3331 778.62C99.7331 773.91 98.1531 764.08 97.7631 763.68Z" fill="black"/>
</g>
<path d="M84.8133 716.72C85.1518 717.477 85.6661 718.142 86.3133 718.66C86.7299 718.969 87.2125 719.178 87.7233 719.27C86.8433 719.78 85.8833 720.16 85.0033 720.67C83.6191 721.6 82.284 722.602 81.0033 723.67C79.6937 724.723 78.0903 725.345 76.4133 725.45C77.0018 724.657 77.3709 723.722 77.4832 722.741C77.5956 721.759 77.4473 720.766 77.0533 719.86C76.6933 719.266 76.4553 718.607 76.3533 717.92C76.3533 716.79 77.3533 715.92 78.2833 715.32C79.0333 714.81 79.8033 714.32 80.5833 713.83C81.1933 713.45 82.1132 712.65 82.8832 712.68C83.6532 712.71 83.7432 713.39 83.8832 714.09C84.0813 715.002 84.3938 715.886 84.8133 716.72Z" fill="#BE6F72"/>
<path opacity="0.1" d="M84.8133 716.72C85.1518 717.477 85.6661 718.142 86.3133 718.66C86.7299 718.969 87.2125 719.178 87.7233 719.27C86.8433 719.78 85.8833 720.16 85.0033 720.67C83.6191 721.6 82.284 722.602 81.0033 723.67C79.6937 724.723 78.0903 725.345 76.4133 725.45C77.0018 724.657 77.3709 723.722 77.4832 722.741C77.5956 721.759 77.4473 720.766 77.0533 719.86C76.6933 719.266 76.4553 718.607 76.3533 717.92C76.3533 716.79 77.3533 715.92 78.2833 715.32C79.0333 714.81 79.8033 714.32 80.5833 713.83C81.1933 713.45 82.1132 712.65 82.8832 712.68C83.6532 712.71 83.7432 713.39 83.8832 714.09C84.0813 715.002 84.3938 715.886 84.8133 716.72Z" fill="black"/>
<path d="M94.0234 739.91C99.016 739.91 103.063 735.863 103.063 730.87C103.063 725.877 99.016 721.83 94.0234 721.83C89.0307 721.83 84.9834 725.877 84.9834 730.87C84.9834 735.863 89.0307 739.91 94.0234 739.91Z" fill="#BE6F72"/>
<path d="M106.793 859.18C106.793 859.97 105.223 861.93 105.223 861.93C102.031 862.322 98.7908 861.917 95.7933 860.75C95.0033 860.36 96.1834 858 96.1834 858L96.2733 857.81C96.6337 856.884 97.1364 856.021 97.7633 855.25C98.5433 854.47 99.0133 851.25 99.0133 851.25C101.453 847.25 105.783 852.98 105.783 852.98C105.783 852.98 106.333 855.98 106.623 857.8C106.723 858.45 106.793 858.98 106.793 859.18Z" fill="#FF6F61"/>
<path opacity="0.1" d="M106.793 859.18C106.793 859.97 105.223 861.93 105.223 861.93C102.031 862.322 98.7908 861.916 95.7933 860.75C95.0033 860.36 96.1834 858 96.1834 858L96.2733 857.81C98.9511 859.054 101.882 859.656 104.833 859.57L106.623 857.78C106.723 858.45 106.793 858.98 106.793 859.18Z" fill="black"/>
<path d="M75.9433 720.84C80.8255 720.84 84.7833 716.882 84.7833 712C84.7833 707.118 80.8255 703.16 75.9433 703.16C71.0611 703.16 67.1033 707.118 67.1033 712C67.1033 716.882 71.0611 720.84 75.9433 720.84Z" fill="#BE6F72"/>
<path d="M68.8133 729.68C66.8733 731.53 66.5533 734.46 66.3533 737.13L66.0533 741.04C65.945 742.093 65.9215 743.153 65.9833 744.21C65.9833 744.86 66.1433 745.52 66.2033 746.21C66.2633 746.9 66.2833 747.77 66.2933 748.56V754.34C66.1986 755.533 66.4193 756.729 66.9333 757.81C67.2078 758.332 67.668 758.733 68.2234 758.933C68.7787 759.133 69.3888 759.118 69.9333 758.89C70.5546 758.411 70.9924 757.733 71.1733 756.97C72.1487 754.625 72.8208 752.165 73.1733 749.65C73.2533 748.78 73.2633 747.91 73.3433 747.04C73.4233 746.17 73.5733 745.26 73.7033 744.38C74.2633 740.7 74.5133 736.98 74.7633 733.27C74.8333 732.17 75.8233 727.84 74.3833 727.36C73.6833 727.13 72.2333 727.85 71.5633 728.09C70.5489 728.429 69.6136 728.97 68.8133 729.68Z" fill="#BE6F72"/>
<path opacity="0.1" d="M68.8133 729.68C66.8733 731.53 66.5533 734.46 66.3533 737.13L66.0533 741.04C65.945 742.093 65.9215 743.153 65.9833 744.21C65.9833 744.86 66.1433 745.52 66.2033 746.21C66.2633 746.9 66.2833 747.77 66.2933 748.56V754.34C66.1986 755.533 66.4193 756.729 66.9333 757.81C67.2078 758.332 67.668 758.733 68.2234 758.933C68.7787 759.133 69.3888 759.118 69.9333 758.89C70.5546 758.411 70.9924 757.733 71.1733 756.97C72.1487 754.625 72.8208 752.165 73.1733 749.65C73.2533 748.78 73.2633 747.91 73.3433 747.04C73.4233 746.17 73.5733 745.26 73.7033 744.38C74.2633 740.7 74.5133 736.98 74.7633 733.27C74.8333 732.17 75.8233 727.84 74.3833 727.36C73.6833 727.13 72.2333 727.85 71.5633 728.09C70.5489 728.429 69.6136 728.97 68.8133 729.68Z" fill="black"/>
<path d="M87.1434 717.7C87.1434 717.7 80.4634 722.81 76.5334 723.99C76.5334 723.99 74.2034 726.65 73.8034 727.29C73.4034 727.93 72.6034 734.99 71.8034 736.57C71.0034 738.15 69.0534 741.68 71.8034 745.21C71.8034 745.21 72.5834 748.75 72.1934 749.93C71.8034 751.11 70.3734 755.43 71.6734 755.63C72.9734 755.83 76.9134 758.57 80.4434 757.79C83.9734 757.01 97.1534 760.79 97.1534 760.79C97.1534 760.79 99.3334 740.54 100.913 736.96L97.3734 735.78C97.3734 735.78 87.5534 729.89 93.4434 720.85C93.4334 720.85 87.9134 719.67 87.1434 717.7Z" fill="#FF6F61"/>
<path d="M62.7534 741.37L70.8734 747.12C70.9764 747.195 71.1007 747.236 71.2284 747.236C71.3561 747.236 71.4804 747.195 71.5834 747.12L73.7834 745.47C73.851 745.412 73.9053 745.34 73.9426 745.258C73.9798 745.177 73.999 745.089 73.999 745C73.999 744.911 73.9798 744.822 73.9426 744.741C73.9053 744.66 73.851 744.588 73.7834 744.53L67.5334 738.98C67.4524 738.906 67.3527 738.856 67.2451 738.835C67.1376 738.814 67.0263 738.822 66.9234 738.86L62.9134 740.3C62.8079 740.336 62.7144 740.401 62.6431 740.487C62.5718 740.572 62.5254 740.676 62.5089 740.786C62.4924 740.897 62.5065 741.009 62.5496 741.112C62.5927 741.215 62.6632 741.304 62.7534 741.37Z" fill="#3F3D56"/>
<path d="M65.4834 758.69C64.9094 756.697 64.6232 754.633 64.6333 752.56L64.5133 749.79C64.3926 748.715 64.4913 747.626 64.8034 746.59C65.1116 745.879 65.5738 745.246 66.1566 744.736C66.7394 744.226 67.4282 743.851 68.1734 743.64C69.6662 743.225 71.2266 743.113 72.7633 743.31C72.9706 743.31 73.1742 743.366 73.3534 743.47C73.5102 743.615 73.6214 743.803 73.6734 744.01C73.9006 744.453 74.0339 744.939 74.0649 745.436C74.0959 745.933 74.0239 746.432 73.8534 746.9C73.6212 747.281 73.3069 747.606 72.9334 747.85C71.8434 748.63 70.5734 749.15 69.5434 750C69.3341 750.141 69.1735 750.344 69.0833 750.58C69.0337 750.787 69.0337 751.003 69.0833 751.21C69.2112 751.76 69.3852 752.299 69.6034 752.82C69.6917 753.082 69.8468 753.316 70.0534 753.5C70.2434 753.66 70.4934 753.72 70.6934 753.87C71.1234 754.22 72.0234 754.68 71.9734 755.23C71.8234 757.23 70.6233 759.47 70.1533 761.45C69.2533 765.32 66.0634 760.38 65.4834 758.69Z" fill="#BE6F72"/>
<g opacity="0.1">
<path opacity="0.1" d="M78.1133 757.79H77.8933C78.742 757.955 79.6146 757.955 80.4633 757.79H80.7133C79.8512 757.664 78.9754 757.664 78.1133 757.79Z" fill="black"/>
<path opacity="0.1" d="M98.7433 736.37C97.3333 739.54 95.2533 756.71 94.8833 760.12C96.2633 760.48 97.1733 760.74 97.1733 760.74C97.1733 760.74 99.3333 740.54 100.913 736.96L98.7433 736.37Z" fill="black"/>
</g>
<path d="M94.3332 731.15C94.4068 731.545 94.5589 731.921 94.7804 732.256C95.002 732.591 95.2887 732.878 95.6233 733.1C96.4579 733.799 97.2246 734.576 97.9133 735.42C98.9015 736.81 99.6673 738.345 100.183 739.97C100.934 742.005 101.565 744.082 102.073 746.19C97.0732 748.51 91.3932 748.4 86.0732 749.93C83.7827 750.534 81.7053 751.763 80.0732 753.48C79.2595 754.343 78.6411 755.371 78.2598 756.494C77.8784 757.618 77.7432 758.81 77.8633 759.99C77.871 760.128 77.9122 760.262 77.9833 760.38C78.0701 760.478 78.1786 760.554 78.3001 760.603C78.4216 760.651 78.5529 760.671 78.6833 760.66C80.0124 760.658 81.3033 760.215 82.3533 759.4C83.391 758.589 84.3337 757.663 85.1633 756.64C85.6783 755.969 86.3713 755.456 87.1633 755.16C90.0533 754.28 93.1633 754.33 96.1633 754.28C100.65 754.192 105.128 753.838 109.573 753.22C109.735 753.239 109.9 753.221 110.054 753.168C110.209 753.114 110.349 753.027 110.464 752.911C110.58 752.796 110.668 752.655 110.721 752.501C110.775 752.347 110.793 752.182 110.773 752.02C111.213 746.12 109.023 740.36 106.773 734.89C105.873 732.697 104.947 730.513 103.993 728.34C103.208 726.216 102.058 724.247 100.593 722.52C100.037 721.892 99.356 721.388 98.5933 721.04C97.7328 720.729 96.8277 720.561 95.9133 720.54C94.4579 720.344 92.9848 720.317 91.5232 720.46C91.2901 721.196 91.1491 721.959 91.1033 722.73C91.1833 725.43 92.3632 727.96 93.5232 730.4C93.6732 730.77 94.1032 730.79 94.3332 731.15Z" fill="#BE6F72"/>
<path opacity="0.1" d="M78.3233 736.21C77.6468 737.368 77.3009 738.689 77.3233 740.03C77.3257 740.56 77.4101 741.086 77.5733 741.59C77.8464 742.297 78.2748 742.934 78.8269 743.453C79.3791 743.972 80.0408 744.361 80.7633 744.59" stroke="black" stroke-miterlimit="10"/>
<path d="M83.4132 703.36C82.9207 703.358 82.4311 703.436 81.9632 703.59C80.6532 701.59 77.5732 700.21 73.9632 700.21C69.1832 700.21 65.3132 702.68 65.3132 705.72C65.3132 708.76 69.1832 711.22 73.9632 711.22C75.753 711.239 77.5251 710.864 79.1532 710.12C79.5194 710.878 80.0819 711.523 80.7822 711.99C81.4824 712.456 82.2948 712.727 83.135 712.773C83.9752 712.819 84.8124 712.639 85.5596 712.252C86.3068 711.866 86.9367 711.285 87.3838 710.573C87.8309 709.86 88.0789 709.04 88.1019 708.199C88.125 707.358 87.9223 706.526 87.515 705.79C87.1076 705.054 86.5104 704.44 85.7856 704.013C85.0607 703.585 84.2346 703.36 83.3932 703.36H83.4132Z" fill="#3F3D56"/>
<path opacity="0.1" d="M83.8032 711.61C82.9166 711.61 82.048 711.36 81.2977 710.887C80.5475 710.415 79.9462 709.74 79.5632 708.94C77.9352 709.684 76.1631 710.059 74.3732 710.04C69.6032 710.04 65.7332 707.58 65.7332 704.54C65.718 704.357 65.718 704.173 65.7332 703.99C65.4487 704.523 65.2977 705.116 65.2932 705.72C65.2932 708.72 69.1632 711.22 73.9432 711.22C75.7331 711.239 77.5051 710.864 79.1332 710.12C79.5639 711.013 80.2653 711.747 81.1376 712.218C82.0099 712.689 83.0086 712.873 83.9914 712.743C84.9742 712.614 85.8911 712.177 86.6114 711.496C87.3317 710.815 87.8188 709.924 88.0032 708.95C87.6228 709.742 87.0273 710.412 86.2847 710.882C85.5421 711.353 84.6822 711.605 83.8032 711.61Z" fill="black"/>
<path opacity="0.1" d="M64.1433 703.54C65.4674 700.828 67.6712 698.645 70.3953 697.347C73.1194 696.048 76.203 695.711 79.1433 696.39C81.2009 695.12 83.5498 694.398 85.9657 694.294C88.3815 694.191 90.7837 694.708 92.9425 695.798C95.1013 696.887 96.9446 698.512 98.2963 700.517C99.648 702.522 100.463 704.84 100.663 707.25C100.663 706.86 100.663 706.47 100.663 706.07C100.658 703.555 99.9818 701.087 98.7046 698.92C97.4275 696.753 95.5955 694.967 93.3977 693.744C91.1998 692.521 88.7157 691.907 86.2013 691.964C83.6869 692.021 81.2332 692.748 79.0934 694.07C76.153 693.391 73.0694 693.728 70.3453 695.027C67.6212 696.325 65.4175 698.508 64.0934 701.22C62.444 702.78 61.1391 704.668 60.2625 706.762C59.386 708.856 58.9571 711.11 59.0034 713.38C59.0034 713.78 59.0034 714.17 59.0034 714.56C59.1997 710.353 61.0465 706.394 64.1433 703.54Z" fill="black"/>
<defs>
<linearGradient id="paint0_linear" x1="62065.2" y1="66741" x2="62065.2" y2="56554.9" gradientUnits="userSpaceOnUse">
<stop stop-color="#808080" stop-opacity="0.25"/>
<stop offset="0.54" stop-color="#808080" stop-opacity="0.12"/>
<stop offset="1" stop-color="#808080" stop-opacity="0.1"/>
</linearGradient>
<linearGradient id="paint1_linear" x1="84.9834" y1="862.12" x2="84.9834" y2="690" gradientUnits="userSpaceOnUse">
<stop stop-color="#808080" stop-opacity="0.25"/>
<stop offset="0.54" stop-color="#808080" stop-opacity="0.12"/>
<stop offset="1" stop-color="#808080" stop-opacity="0.1"/>
</linearGradient>
</defs>
</svg>
