<svg width="36" height="36" viewBox="0 0 36 36" fill="none" xmlns="http://www.w3.org/2000/svg">
<g filter="url(#filter0_d)">
<path d="M15.8042 2.23751C8.71251 3.00834 3.00835 8.7125 2.23751 15.65C1.46668 22.8958 5.62918 29.3708 11.95 31.8375C12.4125 31.9917 12.875 31.6833 12.875 31.0667V28.6C12.875 28.6 12.2583 28.7542 11.4875 28.7542C9.32918 28.7542 8.40418 26.9042 8.25001 25.825C8.09585 25.2083 7.78751 24.7458 7.32501 24.2833C6.86251 24.1292 6.70835 24.1292 6.70835 23.975C6.70835 23.6667 7.17085 23.6667 7.32501 23.6667C8.25001 23.6667 9.02085 24.7458 9.32918 25.2083C10.1 26.4417 11.025 26.75 11.4875 26.75C12.1042 26.75 12.5667 26.5958 12.875 26.4417C13.0292 25.3625 13.4917 24.2833 14.4167 23.6667C10.8708 22.8958 8.25001 20.8917 8.25001 17.5C8.25001 15.8042 9.02085 14.1083 10.1 12.875C9.94585 12.5667 9.79168 11.7958 9.79168 10.7167C9.79168 10.1 9.79168 9.32917 10.1 8.7125C10.1 8.40417 10.4083 8.25 10.5625 8.25H10.7167C11.4875 8.40417 13.0292 8.86667 14.4167 10.2542C15.3417 9.94584 16.4208 9.79167 17.5 9.79167C18.5792 9.79167 19.6583 9.94584 20.5833 10.2542C21.9708 8.86667 23.6667 8.40417 24.4375 8.25H24.5917C24.9 8.25 25.0542 8.40417 25.2083 8.7125C25.2083 9.32917 25.2083 10.1 25.2083 10.7167C25.2083 11.95 25.0542 12.5667 24.9 12.875C25.9792 14.1083 26.75 15.65 26.75 17.5C26.75 20.8917 24.1292 22.8958 20.5833 23.6667C21.5083 24.4375 22.125 25.825 22.125 27.2125V31.2208C22.125 31.6833 22.5875 32.1458 23.2042 31.9917C28.9083 29.6792 32.9167 24.1292 32.9167 17.6542C32.9167 8.40417 25.0542 1.15834 15.8042 2.23751Z" fill="black"/>
</g>
<defs>
<filter id="filter0_d" x="0.145813" y="0.130798" width="42.7709" height="41.8911" filterUnits="userSpaceOnUse" color-interpolation-filters="sRGB">
<feFlood flood-opacity="0" result="BackgroundImageFix"/>
<feColorMatrix in="SourceAlpha" type="matrix" values="0 0 0 0 0 0 0 0 0 0 0 0 0 0 0 0 0 0 127 0"/>
<feOffset dx="4" dy="4"/>
<feGaussianBlur stdDeviation="3"/>
<feColorMatrix type="matrix" values="0 0 0 0 0 0 0 0 0 0 0 0 0 0 0 0 0 0 0.2 0"/>
<feBlend mode="normal" in2="BackgroundImageFix" result="effect1_dropShadow"/>
<feBlend mode="normal" in="SourceGraphic" in2="effect1_dropShadow" result="shape"/>
</filter>
</defs>
</svg>
