<svg width="30" height="30" viewBox="0 0 30 30" fill="none" xmlns="http://www.w3.org/2000/svg">
<path d="M4.12 0.987732C3.04007 0.987732 2.09471 1.30448 1.4025 1.88105C0.710292 2.45763 0.287499 3.31192 0.287499 4.24519C0.287499 6.05595 1.85997 7.45755 3.93875 7.54133C3.99738 7.56068 4.05844 7.57111 4.12 7.57226C5.24228 7.57226 6.19756 7.23301 6.88 6.63254C7.56244 6.03206 7.9525 5.16634 7.9525 4.24519C7.9524 4.23315 7.95199 4.22112 7.95125 4.2091C7.85267 2.38691 6.27986 0.987732 4.12 0.987732ZM4.12 2.29226C5.7898 2.29226 6.61336 3.13777 6.68375 4.26195C6.6792 4.81125 6.473 5.27785 6.06 5.64125C5.64244 6.00866 4.99772 6.26773 4.12 6.26773C2.45475 6.26773 1.5525 5.33545 1.5525 4.24519C1.5525 3.70006 1.76971 3.25188 2.1975 2.89554C2.62529 2.53921 3.27993 2.29226 4.12 2.29226ZM0.919999 8.9C0.750265 8.90002 0.587489 8.96956 0.467469 9.09333C0.34745 9.2171 0.280016 9.38496 0.279999 9.56V28.7C0.280016 28.875 0.34745 29.0429 0.467469 29.1667C0.587489 29.2904 0.750265 29.36 0.919999 29.36H7.32C7.48973 29.36 7.65251 29.2904 7.77253 29.1667C7.89255 29.0429 7.95998 28.875 7.96 28.7V22.5383V9.56C7.95998 9.38496 7.89255 9.2171 7.77253 9.09333C7.65251 8.96956 7.48973 8.90002 7.32 8.9H0.919999ZM10.52 8.9C10.3503 8.90002 10.1875 8.96956 10.0675 9.09333C9.94745 9.2171 9.88002 9.38496 9.88 9.56V28.7C9.88002 28.875 9.94745 29.0429 10.0675 29.1667C10.1875 29.2904 10.3503 29.36 10.52 29.36H16.92C17.0897 29.36 17.2525 29.2904 17.3725 29.1667C17.4925 29.0429 17.56 28.875 17.56 28.7V18.14V17.975V17.81C17.56 16.5267 18.5556 15.5 19.8 15.5C21.0444 15.5 22.04 16.5267 22.04 17.81V28.7C22.04 28.875 22.1074 29.0429 22.2275 29.1667C22.3475 29.2904 22.5103 29.36 22.68 29.36H29.08C29.2497 29.36 29.4125 29.2904 29.5325 29.1667C29.6525 29.0429 29.72 28.875 29.72 28.7V17.48C29.72 14.7565 28.9442 12.5989 27.6362 11.1275C26.3283 9.65606 24.5035 8.9 22.5437 8.9C20.045 8.9 18.5338 9.84121 17.56 10.617V9.56C17.56 9.38496 17.4925 9.2171 17.3725 9.09333C17.2525 8.96956 17.0897 8.90002 16.92 8.9H10.52ZM1.56 10.22H6.68V22.5383V28.04H1.56V10.22ZM11.16 10.22H16.28V11.9615C16.28 12.0951 16.3194 12.2255 16.3928 12.3355C16.4662 12.4455 16.5702 12.53 16.6911 12.5777C16.8121 12.6255 16.9442 12.6343 17.0701 12.603C17.196 12.5717 17.3097 12.5017 17.3962 12.4024C17.3962 12.4024 19.2943 10.22 22.5437 10.22C24.1904 10.22 25.6339 10.8287 26.6925 12.0195C27.7511 13.2104 28.44 15.0126 28.44 17.48V28.04H23.32V17.81C23.3208 17.7169 23.3025 17.6246 23.2662 17.5393C23.1242 15.6743 21.6434 14.18 19.8 14.18C17.8636 14.18 16.28 15.8131 16.28 17.81V17.975V18.14V28.04H11.16V10.22Z" fill="black"/>
</svg>
