<svg width="108" height="25" viewBox="0 0 108 25" fill="none" xmlns="http://www.w3.org/2000/svg">
<rect width="108" height="25" rx="5" fill="white"/>
<path d="M31.855 9.875H29.675V16H28.33V9.875H26.15V8.77H31.855V9.875ZM34.9861 12.21C35.2394 12.21 35.4594 12.1783 35.6461 12.115C35.8361 12.0517 35.9911 11.965 36.1111 11.855C36.2344 11.7417 36.3261 11.6083 36.3861 11.455C36.4461 11.3017 36.4761 11.1333 36.4761 10.95C36.4761 10.5833 36.3544 10.3017 36.1111 10.105C35.8711 9.90833 35.5028 9.81 35.0061 9.81H34.1461V12.21H34.9861ZM38.4461 16H37.2311C37.0011 16 36.8344 15.91 36.7311 15.73L35.2111 13.415C35.1544 13.3283 35.0911 13.2667 35.0211 13.23C34.9544 13.1933 34.8544 13.175 34.7211 13.175H34.1461V16H32.8011V8.77H35.0061C35.4961 8.77 35.9161 8.82167 36.2661 8.925C36.6194 9.025 36.9078 9.16667 37.1311 9.35C37.3578 9.53333 37.5244 9.75333 37.6311 10.01C37.7378 10.2633 37.7911 10.5433 37.7911 10.85C37.7911 11.0933 37.7544 11.3233 37.6811 11.54C37.6111 11.7567 37.5078 11.9533 37.3711 12.13C37.2378 12.3067 37.0711 12.4617 36.8711 12.595C36.6744 12.7283 36.4494 12.8333 36.1961 12.91C36.2828 12.96 36.3628 13.02 36.4361 13.09C36.5094 13.1567 36.5761 13.2367 36.6361 13.33L38.4461 16ZM40.5769 9.84V11.845H43.1069V12.88H40.5769V14.925H43.7869V16H39.2269V8.77H43.7869V9.84H40.5769ZM51.0738 8.77V16H50.3838C50.2772 16 50.1872 15.9833 50.1138 15.95C50.0438 15.9133 49.9755 15.8533 49.9088 15.77L46.1338 10.95C46.1538 11.17 46.1638 11.3733 46.1638 11.56V16H44.9788V8.77H45.6838C45.7405 8.77 45.7888 8.77333 45.8288 8.78C45.8722 8.78333 45.9088 8.79333 45.9388 8.81C45.9722 8.82333 46.0038 8.845 46.0338 8.875C46.0638 8.90167 46.0972 8.93833 46.1338 8.985L49.9238 13.825C49.9138 13.7083 49.9055 13.5933 49.8988 13.48C49.8922 13.3667 49.8888 13.2617 49.8888 13.165V8.77H51.0738ZM59.1039 12.385C59.1039 12.915 59.0156 13.4017 58.8389 13.845C58.6622 14.2883 58.4139 14.67 58.0939 14.99C57.7739 15.31 57.3889 15.5583 56.9389 15.735C56.4889 15.9117 55.9889 16 55.4389 16H52.6839V8.77H55.4389C55.9889 8.77 56.4889 8.86 56.9389 9.04C57.3889 9.21667 57.7739 9.465 58.0939 9.785C58.4139 10.1017 58.6622 10.4817 58.8389 10.925C59.0156 11.3683 59.1039 11.855 59.1039 12.385ZM57.7239 12.385C57.7239 11.9883 57.6706 11.6333 57.5639 11.32C57.4606 11.0033 57.3089 10.7367 57.1089 10.52C56.9122 10.3 56.6722 10.1317 56.3889 10.015C56.1089 9.89833 55.7922 9.84 55.4389 9.84H54.0339V14.93H55.4389C55.7922 14.93 56.1089 14.8717 56.3889 14.755C56.6722 14.6383 56.9122 14.4717 57.1089 14.255C57.3089 14.035 57.4606 13.7683 57.5639 13.455C57.6706 13.1383 57.7239 12.7817 57.7239 12.385ZM61.6413 16H60.2913V8.77H61.6413V16ZM69.3551 8.77V16H68.6651C68.5584 16 68.4684 15.9833 68.3951 15.95C68.3251 15.9133 68.2567 15.8533 68.1901 15.77L64.4151 10.95C64.4351 11.17 64.4451 11.3733 64.4451 11.56V16H63.2601V8.77H63.9651C64.0217 8.77 64.0701 8.77333 64.1101 8.78C64.1534 8.78333 64.1901 8.79333 64.2201 8.81C64.2534 8.82333 64.2851 8.845 64.3151 8.875C64.3451 8.90167 64.3784 8.93833 64.4151 8.985L68.2051 13.825C68.1951 13.7083 68.1867 13.5933 68.1801 13.48C68.1734 13.3667 68.1701 13.2617 68.1701 13.165V8.77H69.3551ZM76.9252 12.375V15.3C76.5585 15.57 76.1668 15.7683 75.7502 15.895C75.3368 16.0183 74.8935 16.08 74.4202 16.08C73.8302 16.08 73.2952 15.9883 72.8152 15.805C72.3385 15.6217 71.9302 15.3667 71.5902 15.04C71.2535 14.7133 70.9935 14.3233 70.8102 13.87C70.6268 13.4167 70.5352 12.9217 70.5352 12.385C70.5352 11.8417 70.6235 11.3433 70.8002 10.89C70.9768 10.4367 71.2268 10.0467 71.5502 9.72C71.8768 9.39333 72.2718 9.14 72.7352 8.96C73.1985 8.78 73.7185 8.69 74.2952 8.69C74.5885 8.69 74.8618 8.71333 75.1152 8.76C75.3718 8.80667 75.6085 8.87167 75.8252 8.955C76.0452 9.035 76.2452 9.13333 76.4252 9.25C76.6052 9.36667 76.7702 9.495 76.9202 9.635L76.5352 10.245C76.4752 10.3417 76.3968 10.4017 76.3002 10.425C76.2035 10.445 76.0985 10.42 75.9852 10.35C75.8752 10.2867 75.7652 10.2233 75.6552 10.16C75.5452 10.0967 75.4218 10.0417 75.2852 9.995C75.1518 9.94833 75.0002 9.91 74.8302 9.88C74.6635 9.85 74.4702 9.835 74.2502 9.835C73.8935 9.835 73.5702 9.895 73.2802 10.015C72.9935 10.135 72.7485 10.3067 72.5452 10.53C72.3418 10.7533 72.1852 11.0217 72.0752 11.335C71.9652 11.6483 71.9102 11.9983 71.9102 12.385C71.9102 12.7983 71.9685 13.1683 72.0852 13.495C72.2052 13.8183 72.3718 14.0933 72.5852 14.32C72.8018 14.5433 73.0618 14.715 73.3652 14.835C73.6685 14.9517 74.0068 15.01 74.3802 15.01C74.6468 15.01 74.8852 14.9817 75.0952 14.925C75.3052 14.8683 75.5102 14.7917 75.7102 14.695V13.385H74.8002C74.7135 13.385 74.6452 13.3617 74.5952 13.315C74.5485 13.265 74.5252 13.205 74.5252 13.135V12.375H76.9252Z" fill="#FF0000"/>
<circle cx="95" cy="13" r="6.625" stroke="#C4C4C4" stroke-width="0.75"/>
<path d="M95.4892 11.92V17H94.5142V11.92H95.4892ZM95.6742 10.35C95.6742 10.44 95.6558 10.5267 95.6192 10.61C95.5825 10.69 95.5325 10.7617 95.4692 10.825C95.4092 10.885 95.3375 10.9333 95.2542 10.97C95.1708 11.0033 95.0842 11.02 94.9942 11.02C94.9042 11.02 94.8192 11.0033 94.7392 10.97C94.6592 10.9333 94.5875 10.885 94.5242 10.825C94.4642 10.7617 94.4158 10.69 94.3792 10.61C94.3458 10.5267 94.3292 10.44 94.3292 10.35C94.3292 10.2567 94.3458 10.17 94.3792 10.09C94.4158 10.0067 94.4642 9.935 94.5242 9.875C94.5875 9.81167 94.6592 9.76333 94.7392 9.73C94.8192 9.69333 94.9042 9.675 94.9942 9.675C95.0842 9.675 95.1708 9.69333 95.2542 9.73C95.3375 9.76333 95.4092 9.81167 95.4692 9.875C95.5325 9.935 95.5825 10.0067 95.6192 10.09C95.6558 10.17 95.6742 10.2567 95.6742 10.35Z" fill="#C4C4C4"/>
<circle cx="13.6645" cy="15.7414" r="4.97281" fill="#FF0000"/>
<path d="M9.38593 10.0269C9.88113 11.7717 12.869 11.4647 12.869 11.4647L16.3381 14.6616L9.7869 18.3727C9.7869 18.3727 8.89073 8.28215 9.38593 10.0269Z" fill="#FF0000"/>
<path d="M18.5697 8.13721C17.7423 11.216 11.6176 12.7719 11.6176 12.7719L18.1688 16.483C18.1688 16.483 19.3971 5.05838 18.5697 8.13721Z" fill="#FF0000"/>
<path d="M13.467 4.33676C12.6705 2.29012 19.433 14.6933 18.0135 14.364C16.594 14.0346 9.40278 14.5689 9.40278 14.5689C9.38994 14.8514 10.9615 12.3221 12.1741 9.5806C13.0973 7.49348 13.8113 5.2214 13.467 4.33676Z" fill="#FF0000"/>
<ellipse cx="13.7112" cy="17.5209" rx="3.77276" ry="3.49164" fill="white"/>
<path d="M10.4651 13.5086C10.8408 14.7337 13.1076 14.5181 13.1076 14.5181L15.7395 16.7628L10.7693 19.3685C10.7693 19.3685 10.0894 12.2835 10.4651 13.5086Z" fill="white"/>
<path d="M17.4326 12.1818C16.8049 14.3436 12.1582 15.436 12.1582 15.436L17.1284 18.0417C17.1284 18.0417 18.0604 10.02 17.4326 12.1818Z" fill="white"/>
<path d="M13.5614 9.51319C12.9571 8.07615 18.0877 16.785 17.0108 16.5538C15.9338 16.3225 10.478 16.6977 10.478 16.6977C10.4683 16.896 11.6605 15.1201 12.5805 13.1951C13.2809 11.7297 13.8226 10.1343 13.5614 9.51319Z" fill="white"/>
</svg>
