<svg width="30" height="26" viewBox="0 0 30 26" fill="none" xmlns="http://www.w3.org/2000/svg">
<path d="M30 3.69625C28.8962 4.18625 27.71 4.51625 26.465 4.665C27.7363 3.90375 28.7125 2.6975 29.1712 1.26C27.9825 1.965 26.665 2.4775 25.2625 2.75375C24.1412 1.5575 22.54 0.809998 20.77 0.809998C16.7962 0.809998 13.8763 4.5175 14.7738 8.36625C9.66 8.11 5.125 5.66 2.08875 1.93625C0.47625 4.7025 1.2525 8.32125 3.9925 10.1537C2.985 10.1212 2.035 9.845 1.20625 9.38375C1.13875 12.235 3.1825 14.9025 6.1425 15.4962C5.27625 15.7312 4.3275 15.7862 3.3625 15.6012C4.145 18.0462 6.4175 19.825 9.1125 19.875C6.525 21.9037 3.265 22.81 0 22.425C2.72375 24.1712 5.96 25.19 9.435 25.19C20.8625 25.19 27.3187 15.5387 26.9287 6.8825C28.1312 6.01375 29.175 4.93 30 3.69625Z" fill="black"/>
</svg>
