<svg width="424" height="523" viewBox="0 0 424 523" fill="none" xmlns="http://www.w3.org/2000/svg">
<path d="M132.958 48.4887L268.814 48.4886L417.157 421.013L272.694 421.013L132.959 421.013L132.958 48.4887Z" fill="#619A46"/>
<path d="M389.314 159.27C389.314 221.713 338.748 272.333 276.371 272.333C213.993 272.333 163.427 221.713 163.427 159.27C163.427 96.8271 211.677 43.3081 274.054 43.3081C336.431 43.3081 389.314 96.8271 389.314 159.27Z" fill="#7DAA6A"/>
<path d="M389.314 159.27C389.314 221.713 338.748 272.333 276.371 272.333C213.993 272.333 163.427 221.713 163.427 159.27C163.427 96.8271 211.677 43.3081 274.054 43.3081C336.431 43.3081 389.314 96.8271 389.314 159.27Z" fill="#7DAA6A"/>
<rect x="132.958" y="47.5107" width="114.52" height="372.977" fill="#438029"/>
<path d="M301.929 151.043C308.222 140.397 318.555 132.576 330.481 129.304C358.922 121.503 387.892 141.322 390.353 170.711C391.191 180.718 388.811 190.731 383.56 199.291L356.783 242.945L316.439 297.646L279.558 354.278L265.28 374.299C253.961 390.169 229.842 388.372 221 371L215.256 362.695C204.632 347.334 203.456 327.332 212.205 310.831L253.399 233.143L301.929 151.043Z" fill="#D4AF37"/>
<path d="M132.962 210.997L132.962 47.5106L204 171L296 329L246 420.5L132.962 210.997Z" fill="#E1C158"/>
</svg>
