<?xml version="1.0" encoding="UTF-8"?>
<svg width="144px" height="104px" viewBox="0 0 144 104" version="1.1" xmlns="http://www.w3.org/2000/svg" xmlns:xlink="http://www.w3.org/1999/xlink">
    <!-- Generator: Sketch 61.2 (89653) - https://sketch.com -->
    <title>Combined Shape</title>
    <desc>Created with Sketch.</desc>
    <g id="Page-1" stroke="none" stroke-width="1" fill="none" fill-rule="evenodd">
        <g id="Canvas" transform="translate(-73.000000, -103.000000)" fill="#000000" fill-rule="nonzero">
            <path d="M136,144 C138.209139,144 140,145.790861 140,148 C140,148.169994 139.989396,148.33751 139.968813,148.501925 C139.981482,148.59994 139.990155,148.69966 139.995105,148.80036 L140,149 L140,203 C140,205.209139 138.209139,207 136,207 C133.857805,207 132.108921,205.316032 132.004895,203.19964 L132,203 L132,152 L102,152 C99.790861,152 98,150.209139 98,148 C98,145.857805 99.6839685,144.108921 101.80036,144.004895 L102,144 L136,144 Z M185,103 C202.673112,103 217,117.326888 217,135 C217,152.496381 202.958217,166.713128 185.529179,166.995713 L185,167 L166.656,166.999 L197.92031,198.263456 C199.482407,199.825553 199.482407,202.358213 197.92031,203.92031 C196.405549,205.435071 193.978156,205.480973 192.408085,204.058016 L192.263456,203.92031 L154.07969,165.736544 C152.517593,164.174447 152.517593,161.641787 154.07969,160.07969 C155.078616,159.080764 156.474436,158.720628 157.75954,158.999284 L185,159 C198.254834,159 209,148.254834 209,135 C209,121.877714 198.468663,111.215154 185.396884,111.003215 L185,111 L157,111 C154.790861,111 153,109.209139 153,107 C153,104.857805 154.683968,103.108921 156.80036,103.004895 L157,103 L185,103 Z M131,129 L165,129 C167.209139,129 169,130.790861 169,133 C169,135.142195 167.316032,136.891079 165.19964,136.995105 L165,137 L131,137 C128.790861,137 127,135.209139 127,133 C127,130.857805 128.683968,129.108921 130.80036,129.004895 L131,129 Z M77,116 L181,116 C183.209139,116 185,117.790861 185,120 C185,122.142195 183.316032,123.891079 181.19964,123.995105 L181,124 L77,124 C74.790861,124 73,122.209139 73,120 C73,117.857805 74.6839685,116.108921 76.8003597,116.004895 L77,116 Z" id="Combined-Shape"></path>
        </g>
    </g>
</svg>